<?xml version="1.0" encoding="UTF-8"?> <!-- Generator: Adobe Illustrator 25.2.1, SVG Export Plug-In . SVG Version: 6.00 Build 0) --> <svg xmlns="http://www.w3.org/2000/svg" xmlns:xlink="http://www.w3.org/1999/xlink" id="_x38_0-90__x25__всех_денег_1_" x="0px" y="0px" viewBox="0 0 477 57" style="enable-background:new 0 0 477 57;" xml:space="preserve"> <style type="text/css"> .st0{fill:#3B77AB;} </style> <g id="_x38_0-90__x25__всех_денег"> <g> <path class="st0" d="M29.6,15.2c-0.2-0.2-0.3-0.3-0.3-0.5c0-0.3-0.4-0.7-1-1.2c-0.6-0.5-1.3-1-2-1.6c-0.8-0.5-1.4-0.9-2-1.2 c-0.8-0.4-1.9-0.7-3.3-1c-1.4-0.3-2.7-0.6-4-0.8c-1.3-0.2-2.2-0.4-2.7-0.4c-1.5,0.2-2.7,0.8-3.7,1.7c-1,0.9-1.8,2.3-2.6,4 c-0.7,1.4-1,2.8-1.1,4.2c0,1.4,0.3,2.5,1.1,3.2c0.1,0.3,0.3,0.7,0.6,1c-0.2,0-0.2,0.1,0.1,0.4c0.2,0.3,0.5,0.7,0.7,1.2 c1,1.3,1.5,2.2,1.5,2.7c0,0.5-0.2,1-0.8,1.7c-0.4,0.5-1,1.3-1.8,2.4c-0.8,1.1-1.7,2.3-2.6,3.7c-0.9,1.3-1.7,2.7-2.5,4 c-0.8,1.3-1.3,2.5-1.7,3.5c-0.3,0.5-0.6,1.1-0.7,1.9c-0.1,0.8-0.2,1.5-0.2,2.1c-0.1,1-0.1,1.8,0,2.2c0.1,0.4,0.4,1.1,0.7,1.9 c0.3,0.2,0.6,0.5,0.9,0.8c0.3,0.3,0.7,0.5,1,0.7c0.3,0.2,0.7,0.3,1,0.4c0.3,0.1,0.9,0.2,1.6,0.2c0.7,0,1.5-0.1,2.4-0.4 c0.9-0.2,1.6-0.6,2.3-1c1.1-0.7,1.8-0.9,2.3-0.7c0.2,0,0.5,0,0.8-0.1c0.3-0.1,0.5-0.4,0.6-0.7c0.2-0.1,0.6-0.4,1-0.7 c0.6,0,1.5-0.6,2.6-2c1.1-1.4,2.1-3.1,3-5.2c0.7-1,0.8-2.5,0.3-4.5c-0.6-1.9-1.4-4-2.5-6.1c-1.4-1.7-1.7-2.5-1.1-2.4 c0.3-0.2,0.6-0.3,0.9-0.3c0.2,0.1,0.6,0,1.3-0.2c0.7-0.2,1.4-0.5,2-0.9c0.7-0.3,1-0.6,1-0.7c0-0.2,0.1-0.3,0.3-0.3 c0.2,0,0.4,0.1,0.6,0.3c0.2,0,0.4-0.1,0.6-0.4c0.2-0.2,0.5-0.5,0.7-0.9c0.4-0.1,0.8-0.3,1.1-0.6c0.3-0.3,0.6-0.5,0.8-0.7 c0.5-0.2,1.4-1,2.6-2.4c0.3-0.4,0.5-1,0.7-1.7c0.1-0.7,0.2-1.4,0.2-2.2c0-0.7-0.2-1.4-0.5-1.9C29.9,15.6,29.8,15.3,29.6,15.2z M16.8,40.6C16.1,42,14.9,43.5,13,45c-0.7,0.5-1.6,1-2.6,1.6c-1,0.6-2,1-2.8,1.4c-0.9,0.3-1.6,0.5-2.1,0.4 c-0.6-0.1-0.8-0.9-0.6-2.5c0.3-1.6,0.9-3.3,2-5.1c0.4-0.7,0.7-1.4,1-2.1c0.3-0.7,0.4-1.1,0.4-1.3c0.1-0.1,0.4-0.4,0.7-0.7 c0.3-0.3,0.6-0.6,1-1c0.2-0.3,0.5-0.8,0.8-1.3c0.3-0.5,0.8-1.1,1.3-1.8c0.2-0.5,0.7-1.1,1.5-1.6c0.2,0.1,0.5,0.3,0.7,0.5 c0.2,0.2,0.5,0.5,0.8,1c0.2,0.4,0.5,0.9,0.9,1.6c0.3,0.7,0.7,1.3,1,1.9C17.5,37.6,17.5,39.1,16.8,40.6z M26.2,18.9 c0,0.3-0.2,0.7-0.5,1.3c-0.8,0.8-1.7,1.6-2.8,2.2c-1.1,0.6-1.6,0.9-1.7,0.7c-0.3-0.5-0.8-0.8-1.6-0.6c-0.8,0.1-1.7,0.7-2.7,1.6 c-1.2,0.8-2.1,1-2.7,0.7c-0.6-0.3-0.9-0.6-1-0.8c-0.4,0-0.6-0.2-0.6-0.7c-0.3-0.6-0.7-1.1-1.1-1.3c-0.4-0.8-0.6-1.6-0.6-2.4 c0-0.7,0.1-1.6,0.4-2.5c0.7-2.3,2-3.7,4-4.1c2-0.4,4.5,0,7.5,1c1,0.4,1.8,0.7,2.3,1c0.5,0.3,0.8,0.6,0.9,0.9 c0.1,0.3,0.2,0.7,0.1,1.2C26.3,18.1,26.3,18.6,26.2,18.9z M61.8,14.8c0-0.2,0.1-0.4,0.1-0.8c0-0.5-0.3-1-1-1.6 c-0.7-0.6-1.5-1-2.5-1.4c-1-0.4-2-0.6-3-0.6c-0.3,0-0.8,0-1.5,0c-0.6,0-1.2,0.1-1.8,0.3c-1.5,0.3-2.7,0.8-3.8,1.4 c-1,0.6-2.2,1.5-3.5,2.6c-2.4,2-4.5,4.6-6.3,7.6c-1.8,3.1-3,6.2-3.5,9.3c-0.2,1.6-0.2,3.2,0.1,4.9s0.8,3.3,1.6,4.8 c0.7,1.5,1.6,2.7,2.7,3.8c0.5,0.4,1.1,0.9,1.9,1.4c0.8,0.5,1.5,0.9,2.3,1.2c0.7,0.3,1.2,0.5,1.6,0.5c0.5,0,1.2-0.2,2-0.6 c0.8-0.4,1.7-0.9,2.5-1.4c0.9-0.6,1.5-1.1,2-1.6c0.9-0.9,1.6-1.7,2.3-2.5c0.6-0.8,1-1.3,1-1.5c0-0.1,0.1-0.2,0.4-0.3 c0.1,0,0.4-0.2,0.6-0.7c0.3-0.4,0.5-0.9,0.8-1.4c0.2-0.5,0.4-0.8,0.4-0.9C57,37,57,36.9,57.1,36.7c0.1-0.1,0.3-0.3,0.5-0.5 c0.2-0.4,0.5-1.1,0.9-2.1c0.4-1,0.7-1.6,0.9-2c0-0.2,0-0.4,0-0.7c0-0.3,0.1-0.6,0.3-0.8c0.2-0.4,0.4-1.1,0.7-2.1 c0.2-0.9,0.5-1.9,0.7-3c0.2-1.1,0.4-2.1,0.6-3.1c0.1-1,0.2-1.7,0.2-2.1c0-0.5-0.1-1.1-0.2-1.8c-0.1-0.7-0.3-1.2-0.5-1.6l-0.7-2.1 h0.7C61.6,15,61.8,15,61.8,14.8z M57.4,23c0,0.9,0,1.7,0,2.2c0,0.5-0.1,1.2-0.2,2c-0.1,0.8-0.4,1.5-0.8,2c-0.7,2-1.2,3.4-1.5,4.2 c-0.3,0.8-0.8,1.6-1.3,2.3c-0.5,1.3-1.4,2.6-2.6,4c-1.2,1.4-2.2,2.3-3.1,2.9c-0.3,0.3-0.8,0.6-1.3,0.8c-0.5,0.2-1,0.3-1.6,0.3 c-0.9,0.2-1.6,0.3-1.9,0.2c-0.3-0.1-0.8-0.4-1.3-0.8c-0.1-0.2-0.4-0.5-0.8-1c-0.4-0.5-0.7-0.9-0.9-1.2c-0.2-0.5-0.4-0.9-0.6-1.4 c-0.1-0.4-0.3-0.9-0.3-1.5s-0.1-1.3-0.1-2.1v-4c0.1-0.4,0.3-1,0.6-1.7c0.3-0.8,0.7-1.5,1-2.3c0.3-0.8,0.6-1.4,0.9-1.7 c0.1-0.4,0.3-0.7,0.4-1c0.1-0.3,0.2-0.5,0.2-0.7c0-0.2,0.3-0.8,0.9-1.7c0.6-0.9,1.4-1.8,2.3-2.7c1.1-1.3,2.1-2.3,3-2.8 c0.9-0.6,1.3-0.5,1.3,0.2c0,0.2,0.2,0.4,0.6,0.6c0.4,0.1,0.8,0.1,1.1-0.1c0.4-0.2,1.1-0.6,2-0.9c0.9-0.4,1.6-0.6,1.9-0.6 c0.3,0,0.7,0.1,1,0.2c0.3,0.1,0.6,0.3,0.8,0.4c0.3,0.4,0.5,0.8,0.6,1.2c0,0.4,0.1,1.3,0.1,2.5C57.5,21.2,57.4,22,57.4,23z M81.8,32.1C81.4,32,80.5,32,79.2,32c-2,0-3.7,0.1-5.1,0.2c-1.4,0.1-3,0.4-4.7,0.8c-1.8,0.2-3,0.4-3.4,0.7 c-0.4,0.3-0.4,0.8,0.1,1.5c0.2,0.3,0.4,0.6,0.7,0.8c0.2,0.2,0.7,0.3,1.5,0.3c0.5,0.2,1,0.3,1.5,0.3c0.4,0,0.8,0,1.1,0 c1.4,0,2.7,0,3.9-0.1c1.2-0.1,2-0.2,2.6-0.2c0.9-0.1,1.8-0.2,2.7-0.2c0.9,0,1.6-0.1,1.9-0.1c1.1,0.2,1.8,0,2-0.7 c0.2-0.7-0.1-1.4-0.8-2.1C82.7,32.5,82.2,32.2,81.8,32.1z M117.9,9.6c-0.7-0.8-1.4-1.4-2.1-1.7c-0.6-0.2-1.4-0.4-2.5-0.4 c-1.1,0-2,0-2.8,0.1c-1.3,0.2-2.6,0.8-4,1.6c-1.4,0.8-2.6,1.8-3.9,3c-1.2,1.2-2.4,2.6-3.4,4.1c-0.6,1.1-1.1,1.9-1.4,2.5 c-0.3,0.6-0.4,1.3-0.5,2c-0.1,1.4,0.2,2.8,1,4c0.7,1.3,1.7,2.2,3,2.8c1.3,0.6,2.6,0.8,4.2,0.6c1.2-0.1,1.8,0,1.9,0.4 c0.1,0.4-0.2,1.5-0.9,3.3c-0.5,1.4-1,3-1.6,4.8c-0.5,1.8-1,3.5-1.4,5.1c-0.4,1.6-0.6,2.9-0.7,3.9c0,0.3,0,0.8-0.1,1.4 c0,0.6-0.1,1-0.1,1.1c0,0.3,0,0.8,0.2,1.5c0.2,0,0.3,0.1,0.3,0.4c0,0.1,0.1,0.3,0.3,0.5c0.2,0.2,0.4,0.5,0.7,0.7 c0.3,0.2,0.6,0.3,0.8,0.4c0.2,0,0.5-0.1,0.8-0.4c0.3-0.3,0.7-0.6,1.1-1.1c0.4-0.4,0.8-0.9,1.1-1.4c0.3-0.5,0.6-0.9,0.7-1.2 c0.2-0.5,0.4-0.9,0.4-1.2c0-0.2-0.1-0.5-0.2-0.7c-0.2,0-0.5-0.1-0.8-0.2c-0.3-0.1-0.6-0.2-0.8-0.2c-0.3,0-0.4-0.9-0.3-2.6 c0.2-1.7,0.6-3.5,1.3-5.6c0.8-2.3,1.7-4.6,2.8-6.9c1.1-2.3,2.1-4.4,3.2-6.2c1.1-1.8,2-3.1,2.8-3.8c0.6-0.7,1.2-1.5,1.6-2.3 c0.4-0.8,0.8-2.1,1.2-3.7c0.1-0.6,0-1.3-0.4-2.2C119.1,11.2,118.6,10.4,117.9,9.6z M115.9,13.4c-0.1,0.4-0.4,1-1.1,1.7 c-0.2,0.1-0.5,0.5-0.9,1.1c-0.4,0.6-0.9,1.3-1.5,2c-1,1.6-2.3,3-3.7,4.1c-1.4,1.1-2.7,1.8-4,2.1c-1.3,0.3-2.3,0-3-0.7 c-0.5-0.5-0.5-1.5-0.1-2.9c0.4-1.4,1.3-2.8,2.6-4.2c0.8-0.7,1.1-1.3,0.9-1.7c0-0.2,0.1-0.3,0.3-0.4c0.2,0,0.4,0.1,0.6,0 c0.2,0,0.4-0.1,0.6-0.3c1-0.7,1.9-1.2,2.5-1.5c0.7-0.3,1.4-0.6,2.2-0.7c1.2-0.4,2.1-0.6,2.7-0.6c0.6,0,1.1,0.3,1.5,0.9 C115.8,12.6,116,13,115.9,13.4z M152.4,14.8c0-0.2,0.1-0.4,0.1-0.8c0-0.5-0.3-1-1-1.6c-0.7-0.6-1.5-1-2.5-1.4c-1-0.4-2-0.6-3-0.6 c-0.3,0-0.8,0-1.5,0c-0.6,0-1.2,0.1-1.8,0.3c-1.5,0.3-2.7,0.8-3.8,1.4c-1,0.6-2.2,1.5-3.5,2.6c-2.4,2-4.5,4.6-6.3,7.6 c-1.8,3.1-3,6.2-3.5,9.3c-0.2,1.6-0.2,3.2,0.1,4.9s0.8,3.3,1.6,4.8c0.7,1.5,1.6,2.7,2.7,3.8c0.5,0.4,1.1,0.9,1.9,1.4 c0.8,0.5,1.5,0.9,2.3,1.2c0.7,0.3,1.2,0.5,1.6,0.5c0.5,0,1.2-0.2,2-0.6c0.8-0.4,1.7-0.9,2.5-1.4c0.9-0.6,1.5-1.1,2-1.6 c0.9-0.9,1.6-1.7,2.3-2.5c0.6-0.8,1-1.3,1-1.5c0-0.1,0.1-0.2,0.4-0.3c0.1,0,0.4-0.2,0.6-0.7c0.3-0.4,0.5-0.9,0.8-1.4 c0.2-0.5,0.4-0.8,0.4-0.9c-0.2-0.2-0.2-0.4-0.1-0.5c0.1-0.1,0.3-0.3,0.5-0.5c0.2-0.4,0.5-1.1,0.9-2.1c0.4-1,0.7-1.6,0.9-2 c0-0.2,0-0.4,0-0.7c0-0.3,0.1-0.6,0.3-0.8c0.2-0.4,0.4-1.1,0.7-2.1c0.2-0.9,0.5-1.9,0.7-3c0.2-1.1,0.4-2.1,0.6-3.1 c0.1-1,0.2-1.7,0.2-2.1c0-0.5-0.1-1.1-0.2-1.8c-0.1-0.7-0.3-1.2-0.5-1.6l-0.7-2.1h0.7C152.2,15,152.4,15,152.4,14.8z M148,23 c0,0.9,0,1.7,0,2.2c0,0.5-0.1,1.2-0.2,2c-0.1,0.8-0.4,1.5-0.8,2c-0.7,2-1.2,3.4-1.5,4.2c-0.3,0.8-0.8,1.6-1.3,2.3 c-0.5,1.3-1.4,2.6-2.6,4c-1.2,1.4-2.2,2.3-3.1,2.9c-0.3,0.3-0.8,0.6-1.3,0.8c-0.5,0.2-1,0.3-1.6,0.3c-0.9,0.2-1.6,0.3-1.9,0.2 c-0.3-0.1-0.8-0.4-1.3-0.8c-0.1-0.2-0.4-0.5-0.8-1c-0.4-0.5-0.7-0.9-0.9-1.2c-0.2-0.5-0.4-0.9-0.6-1.4c-0.1-0.4-0.3-0.9-0.3-1.5 c-0.1-0.6-0.1-1.3-0.1-2.1v-4c0.1-0.4,0.3-1,0.6-1.7c0.3-0.8,0.7-1.5,1-2.3c0.3-0.8,0.6-1.4,0.9-1.7c0.1-0.4,0.3-0.7,0.4-1 c0.1-0.3,0.2-0.5,0.2-0.7c0-0.2,0.3-0.8,0.9-1.7c0.6-0.9,1.4-1.8,2.3-2.7c1.1-1.3,2.1-2.3,3-2.8c0.9-0.6,1.3-0.5,1.3,0.2 c0,0.2,0.2,0.4,0.6,0.6c0.4,0.1,0.8,0.1,1.1-0.1c0.4-0.2,1.1-0.6,2-0.9c0.9-0.4,1.6-0.6,1.9-0.6c0.3,0,0.7,0.1,1,0.2 c0.3,0.1,0.6,0.3,0.8,0.4c0.3,0.4,0.5,0.8,0.6,1.2c0,0.4,0.1,1.3,0.1,2.5C148.1,21.2,148,22,148,23z M181.3,21.3 c-0.1,0.6-0.1,1.3,0.2,2.1c0.3,0.7,0.8,1.5,1.6,2.3c0.4,0.3,0.8,0.6,1.1,0.8c0.3,0.2,0.7,0.3,1.2,0.3c0.9,0,1.7-0.2,2.4-0.5 c0.7-0.3,1.5-0.7,2.3-1.2c1.1-0.7,2.1-1.4,3-2.1c0.8-0.7,1.7-1.7,2.7-3.1c1.6-2.3,2.5-4.1,2.8-5.7c0.3-1.5,0.4-2.8,0.3-4 c-0.1-1.1-0.4-1.9-0.8-2.5c-0.4-0.6-1.1-1-2-1.4c-0.6-0.6-1.1-1-1.4-1c-0.3,0-1,0.1-1.8,0.3c-0.9,0.2-1.7,0.5-2.4,0.9 c-0.7,0.4-1.6,1-2.6,1.8c-0.5,0.4-1,0.9-1.6,1.6c-0.6,0.6-1.1,1.3-1.5,1.9c-0.4,0.6-0.8,1.2-1,1.6c-0.6,0.9-1.1,1.9-1.5,3 c-0.4,1.1-0.6,1.8-0.5,2.1c0.1,0.4,0,0.7-0.2,0.7c0,0.1-0.1,0.2-0.2,0.3c-0.1,0,0,0.2,0.1,0.4C181.4,20.5,181.4,20.9,181.3,21.3z M185.3,19c0.8-1.8,1.7-3.5,2.5-5c0.9-1.5,1.9-2.7,3.1-3.7c0.7-0.7,1.4-1.1,2-1.1c0.7-0.1,1.2,0,1.7,0.3c0.2,0.1,0.4,0.7,0.4,1.8 s-0.1,1.9-0.3,2.5c-0.5,1.4-1,2.5-1.6,3.5c-0.5,0.9-1.3,1.9-2.1,2.9c-1.6,1.8-3,2.8-4.1,3c-1.1,0.2-1.8-0.1-2.1-0.9 C184.7,21.4,184.8,20.3,185.3,19z M208.4,35c-0.4-0.6-1.1-1-2-1.4c-0.6-0.6-1.1-1-1.4-1c-0.3,0-1,0.1-1.8,0.3 c-0.9,0.2-1.7,0.5-2.4,0.9c-0.7,0.4-1.6,1-2.6,1.8c-0.5,0.4-1,0.9-1.6,1.6c-0.6,0.6-1.1,1.3-1.5,1.9c-0.4,0.6-0.8,1.2-1,1.6 c-0.6,0.9-1.1,1.9-1.5,3c-0.4,1.1-0.6,1.8-0.5,2.1c0.1,0.4,0,0.7-0.2,0.7c0,0.1-0.1,0.2-0.2,0.3c-0.1,0,0,0.2,0.1,0.4 c0,0.5,0,1-0.1,1.3c-0.1,0.6-0.1,1.3,0.2,2.1c0.3,0.7,0.8,1.5,1.6,2.3c0.4,0.3,0.8,0.6,1.1,0.8c0.3,0.2,0.7,0.3,1.2,0.3 c0.9,0,1.7-0.2,2.4-0.5c0.7-0.3,1.5-0.7,2.3-1.2c1.1-0.7,2.1-1.4,3-2.1c0.8-0.7,1.7-1.7,2.7-3.1c1.6-2.3,2.5-4.1,2.8-5.7 c0.3-1.5,0.4-2.8,0.3-4C209.1,36.4,208.8,35.6,208.4,35z M205.1,41c-0.5,1.4-1,2.5-1.6,3.5c-0.5,0.9-1.3,1.9-2.1,2.9 c-1.6,1.8-3,2.8-4.1,3c-1.1,0.2-1.8-0.1-2.1-0.9c-0.3-0.8-0.2-1.9,0.3-3.2c0.8-1.8,1.7-3.5,2.5-5c0.9-1.5,1.9-2.7,3.1-3.7 c0.7-0.7,1.4-1.1,2-1.1c0.7-0.1,1.2,0,1.7,0.3c0.2,0.1,0.4,0.7,0.4,1.8S205.3,40.4,205.1,41z M216.3,7c-0.4-0.2-0.8-0.2-1.2,0 c-0.6-0.3-1.1-0.1-1.4,0.5c-0.1,0.1-0.6,0.7-1.4,1.6c-0.8,0.9-1.9,2.1-3.3,3.5c-1.3,1.4-2.8,2.9-4.3,4.4c-1.5,1.6-3,3.1-4.4,4.5 c-1.4,1.4-2.7,2.7-3.8,3.7c-1.1,1.1-1.8,1.8-2.3,2.2c0,0.2-0.2,0.4-0.3,0.5c-0.2,0.1-0.3,0.3-0.3,0.5c0,0.2-0.1,0.4-0.3,0.5 c-0.1,0.1-0.3,0.3-0.4,0.6c-0.3,0-0.7,0.2-1,0.6c-0.3,0.3-0.6,0.7-0.7,1.1c-0.1,0.3-0.3,0.7-0.5,0.9c-0.2,0.3-0.5,0.4-0.7,0.3 c0,0.1-0.5,0.7-1.3,1.6c-0.8,0.9-1.7,1.9-2.8,3.2c-1.1,1.2-2.2,2.5-3.4,3.8c-1.1,1.3-2.1,2.4-3,3.4c-0.8,1-1.4,1.7-1.6,2 c-0.1,0.3-0.3,0.7-0.7,1c-0.3,0.3-0.7,0.7-1.2,1.1c-1,1.5-1.7,2.8-2.1,4c-0.4,1.2-0.5,2.1-0.2,2.9c0.3,0.7,0.8,1.2,1.7,1.3 c0.3,0,0.6-0.2,0.8-0.5s0.5-0.9,0.9-1.8c0.3-0.6,1-1.6,2.1-3.1c1.1-1.5,2.3-3.1,3.7-4.9c1.4-1.8,2.8-3.5,4.1-5.2 c1.4-1.6,2.4-3,3.3-4c0.8-0.7,1.5-1.3,1.9-1.9c0.4-0.6,0.6-0.9,0.6-1.1c0.1-0.3,0.2-0.4,0.3-0.4c0.3-0.1,0.5-0.2,0.7-0.3 c0.2-0.1,0.3-0.2,0.4-0.4c0-0.1,0.4-0.6,1.1-1.3c0.7-0.7,1.5-1.5,2.4-2.3c0.9-0.8,1.5-1.5,1.9-1.8c0.2-0.5,0.5-0.9,0.8-1.1 c0.3-0.2,0.5-0.3,0.7-0.4c0-0.1,0.5-0.6,1.3-1.4c0.8-0.8,1.8-1.8,3-2.9c1.1-1.1,2.2-2.1,3.2-3.1c1-1,1.7-1.6,2-2 c1.5-1.3,2.6-2.3,3.3-3c0.7-0.6,1.2-1.2,1.6-1.6c0.3-0.4,0.6-0.9,0.8-1.4c0.3-0.5,0.5-0.9,0.5-1.3c0-0.4,0-0.8-0.3-1.3 C216.6,7.9,216.4,7.4,216.3,7z M241.1,37.4c0.3-1.4,0.6-2.5,0.9-3.5c0.3-1,0.5-1.6,0.6-1.7c0.3-0.3,0.5-0.7,0.5-1.1 c0-0.5,0.2-1,0.5-1.7c0.2-0.5,0.4-0.9,0.7-1.1c0.3-0.3,0.6-0.5,1-0.6c0.7-0.2,1.4-0.5,2-0.8c0.7-0.3,1.3-0.6,2-1 c1-0.5,2.1-1.2,3.1-1.8c1-0.7,2-1.5,2.9-2.3c1.9-1.3,3.7-2.8,5.5-4.5c1.8-1.7,3.2-3.6,4.2-5.6c0.9-1.9,1.5-3.3,1.8-4.2 c0.3-0.9,0.4-1.7,0.3-2.4c-0.1-0.7-0.5-1.6-1.1-2.7c-0.3-0.4-0.9-0.8-1.8-1.2c-0.8-0.4-1.4-0.5-1.7-0.3c-0.7,0.2-1.6,0.4-2.7,0.6 s-1.8,0.5-2,0.7c-0.6,0.6-1.4,1.3-2.4,2.1c-1,0.8-2,1.6-3,2.5c-1,0.9-1.8,1.9-2.4,3c-1,0.8-1.8,1.8-2.5,2.9 c-0.7,1.1-1.4,2.2-2.2,3.1c-0.2,0.3-0.6,0.9-1.1,1.8c-0.5,0.9-0.9,1.7-1.3,2.6c-0.4,0.9-0.7,1.5-0.8,1.8c-0.5,1-1.2,1.9-2,2.5 c-0.3,0.2-0.5,0.5-0.6,0.8c-0.1,0.3-0.2,0.7-0.1,1.1c0.1,1,0,1.9-0.2,2.7c0,0.2-0.2,0.7-0.6,1.4c-0.3,0.8-0.5,1.2-0.6,1.4 c0,0.2-0.3,1-0.7,2.4c-0.4,1.4-0.9,4-1.6,7.8c-0.2,0.4-0.2,1.2,0,2.3c0.2,1.1,0.6,2,1.1,2.9c0.8,1.3,1.7,2,2.8,2.1 c1.1,0.1,2,0.1,2.8,0.1l2.4-1.5c0.8-0.7,1.6-1.5,2.4-2.3c0.8-0.8,1.4-1.8,2-2.9c0.4-0.5,0.7-1.1,1-1.8c0.3-0.6,0.6-1.3,0.9-1.9 c0.2-0.7,0.4-1.4,0.5-2.1c0.1-0.7,0.3-1.4,0.7-2c0-0.5,0-1.1,0.1-1.7c0.1-0.6,0.1-1.1,0.2-1.7c0.1-0.2,0.1-0.5,0.1-0.7 c0-0.2-0.2-0.4-0.4-0.6c-0.5-0.5-1.1-1-1.7-1.3c-0.6-0.3-1.2-0.6-1.8-0.7c-0.3-0.1-0.6-0.1-0.6,0.1c-0.1,0.1-0.3,0.3-0.7,0.6 c0.2,0.5,0.3,0.9,0.4,1.3c0.1,0.4,0.1,0.8,0.1,1.4c0,0.6,0,1.4,0,2.5c-0.2,0.5-0.4,1-0.5,1.7c-0.1,0.6-0.2,1.2-0.4,1.7 c-0.3,0.9-0.8,1.7-1.3,2.6c-0.5,0.8-1.1,1.6-1.7,2.4c-0.5,0.6-1,1.1-1.5,1.5c-0.4,0.4-1,0.6-1.8,0.8c-0.3-0.1-0.6-0.4-0.6-0.6 c-0.1-0.3-0.1-0.5-0.2-0.8c0-0.4,0-1.2,0.2-2.3C240.5,40,240.7,38.8,241.1,37.4z M247.9,18.8c1-1.4,2-2.8,3.1-4.2 c1.1-1.4,2.2-2.7,3.1-3.9c1-1.2,1.7-2,2.2-2.5c1.3-1.3,2.3-2.2,3.1-2.7c0.8-0.5,1.9-1.1,3.3-1.8l0.3,2.1c-0.1,0.6-0.3,1.2-0.6,1.7 c-0.3,0.5-0.6,1-0.8,1.6c-0.4,1.1-1.2,2.3-2.5,3.7c-1.3,1.4-2.9,2.9-4.8,4.4c-1.9,1.5-4,3-6.4,4.5c-0.3,0.4-0.6,0.6-0.8,0.7 c-0.3,0.1-0.7,0.1-1.3,0C246.2,21.3,246.9,20.1,247.9,18.8z M277.7,38.4c-0.3-0.2-0.7-0.3-1.1-0.4c-0.6,0-1,0-1.3,0.1 c-0.3,0.1-0.6,0.4-1,1c-0.4,0.2-0.8,0.5-1.1,0.8c-0.3,0.3-0.6,0.6-0.9,0.7c-0.7,0.5-1.6,1.1-2.6,1.8c-1,0.7-1.9,1.2-2.7,1.6 c-0.5,0.3-1.4,0.5-2.6,0.6c-1.2,0.1-2.1,0.1-2.8-0.1c-0.1,0-0.3-0.5-0.3-1.3c-0.1-0.8,0-1.8,0.3-3c0.7-2.9,1.6-5.3,2.5-7.3 c0.9-1.9,2-3.5,3.1-4.8c1.1-1.2,2.3-2.2,3.5-2.9c1-0.4,1.6-0.4,2,0c0.3,0.4,0.4,1.3,0.1,2.7c-0.2,0.9-0.4,1.7-0.6,2.3 c-0.2,0.6-0.3,1-0.3,1.3c0.1,0.4,0.4,0.7,0.7,1c0.3,0.3,0.6,0.4,0.8,0.5c0.3,0,0.4,0,0.4-0.3c0-0.2,0.1-0.4,0.3-0.4 c0.2,0,0.4,0,0.6,0c0.4,0,0.8-0.3,1.3-1c0.5-0.7,0.8-1.5,1-2.4c0.3-0.5,0.4-1.2,0.4-2c0-0.8-0.2-1.5-0.4-2.2c-0.2-0.6-0.5-1-0.8-1 l-0.4-0.4c0-0.6-0.5-1.1-1.4-1.7c-0.9-0.5-1.8-0.9-2.5-1.1c-0.4,0-0.9,0-1.5,0.1c-0.6,0.1-1.3,0.3-2,0.6c-0.8,0.3-1.7,1-2.7,2 c-1,1-2,2.1-3,3.3c-1.1,1.4-2.2,3.1-3.1,5.1c-1,2-1.7,3.9-2.2,5.9c-0.5,1.9-0.7,3.7-0.5,5.1c0,1.6,0.4,2.9,1.1,3.9 c0.7,1,1.7,1.7,2.8,2.1c1.2,0.4,2.5,0.5,3.9,0.3c0.7-0.1,1.5-0.4,2.4-0.8c0.9-0.4,1.7-0.8,2.4-1.2c0.7-0.4,1.1-0.6,1.1-0.7 c0-0.3,0.2-0.4,0.7-0.4c0.3,0,0.8-0.3,1.5-0.8c0.7-0.5,1.5-1.1,2.3-1.9c0.8-0.7,1.4-1.4,2-2c0.5-0.6,0.7-1,0.6-1.2 c0-0.2,0.2-0.4,0.4-0.4c0.3-0.1,0.4-0.3,0.3-0.5C278.2,38.8,278,38.6,277.7,38.4z M303.6,25.6c-0.2-0.7-0.7-1.4-1.5-2.2 c-0.3-0.5-0.8-0.9-1.4-1.2c-0.6-0.3-1.4-0.5-2.5-0.7c-1.1-0.1-1.9-0.2-2.4-0.2c-0.5,0-1.1,0.2-1.9,0.7c-1.5,0.6-3.1,1.7-4.6,3.2 c-1.6,1.5-2.9,3.3-4,5.2c-1.1,1.9-1.7,3.9-1.8,5.8c-0.2,2.3-0.2,4.1,0.1,5.5c0.2,1.4,0.8,2.6,1.6,3.7c0.8,1.2,1.9,2.1,3.2,2.6 c1.3,0.6,2.6,0.8,4,0.6c1.4-0.1,2.5-0.7,3.6-1.6c1.1-0.7,2-1.4,2.8-2.3c0.8-0.8,1.3-1.5,1.6-2.1c0.3-0.6,0.2-0.9-0.3-0.9 c-0.2-0.1-0.4-0.3-0.6-0.5c-0.2-0.2-0.4-0.3-0.7-0.3c-0.2,0-0.5,0.1-0.7,0.3c-0.2,0.2-0.5,0.4-0.8,0.8c-0.5,0.5-0.8,0.8-0.9,0.9 c-0.1,0.1-0.3,0.2-0.5,0.3c-0.2,0.1-0.7,0.4-1.5,0.8c-0.8,0.5-1.5,0.7-2.1,0.6c-0.6-0.1-1.3-0.2-2.3-0.4c-0.8-0.1-1.5-0.7-2-1.5 c-0.5-0.9-0.6-2.2-0.4-4.1c0.2-2,0.5-3.2,0.8-3.7s0.9-0.6,1.8-0.2c0.8,0.6,1.9,0.9,3.2,1c1.3,0,2.5-0.1,3.5-0.4 c2-1,3.7-2.3,4.9-3.8c1.3-1.6,2-2.9,2.2-4C304,27,303.8,26.3,303.6,25.6z M299.1,28.9c-0.4,0.6-0.9,1.1-1.5,1.6 c-0.6,0.5-1.2,0.8-1.7,1.1c-0.5,0.2-1.2,0.4-2.1,0.4c-0.9,0-1.6,0-2.3-0.1c-0.7-0.1-1.1-0.3-1.3-0.6c-0.1-0.1,0-0.4,0.4-1 c0.4-0.5,0.9-1.2,1.5-1.8c0.6-0.7,1.3-1.3,2-1.9c0.7-0.6,1.3-0.9,1.8-1.1c1.3-0.3,2.2-0.3,2.9,0.2c0.6,0.5,1,1,1,1.7 C299.7,27.9,299.5,28.3,299.1,28.9z M322.8,32.8c0.7-0.6,1.4-1.1,2.1-1.6c0.7-0.5,1.4-1.1,2.3-1.7c1-0.5,1.6-1,1.9-1.3 c0.3-0.3,0.4-0.8,0.4-1.4c0-0.5-0.2-1.1-0.5-1.6c-0.3-0.5-0.8-0.9-1.3-1.2c-0.5-0.3-0.9-0.3-1.3,0c-0.2,0.1-0.8,0.4-1.6,1 c-0.8,0.5-1.6,1.1-2.3,1.6c-0.7,0.5-1.2,0.8-1.3,1c-0.7,0.7-1.3,1.4-1.9,1.9c-1.2,0.8-2.1,1.3-2.7,1.4c-0.6,0.1-0.9-0.2-0.9-1 c0-0.4-0.2-1.1-0.6-2c-0.4-1-0.9-1.8-1.4-2.7c-0.5-0.8-0.9-1.2-1.2-1.2c-0.6-0.4-1-0.5-1.3-0.4c-0.3,0.1-0.6,0.4-1,0.8 c-0.4,0.6-0.6,1-0.6,1.2c0,0.2,0.3,0.8,0.9,1.6c0.2,0.6,0.5,1.3,0.8,2.2c0.4,0.9,0.7,1.7,1.1,2.5l0.8,2.8l-4.7,4.7 c-1.4,1.2-3.1,2.9-5.1,5.2c0,0.4,0.2,0.8,0.6,1.2c0.4,0.4,0.8,0.8,1.3,1.1c0.5,0.3,0.9,0.4,1.3,0.4c0.4,0,0.9-0.3,1.6-0.9 c0.7-0.6,1.7-1.6,3.1-3c1-1,2.3-2.2,4-3.5c0.5,0,0.7,0.2,0.7,0.7c0,0.2,0.1,0.5,0.4,0.8c0.2,0,0.4,0.1,0.4,0.4 c0,0.3,0.3,0.8,0.8,1.4c0.6,0.6,1.3,1.3,2.1,2.1c0.8,0.7,1.7,1.4,2.5,2c0.8,0.6,1.5,1,2,1.2c0.4,0.2,0.8,0.4,1.3,0.5 c0.5,0.1,0.8,0.2,1,0.2c0.2,0.2,0.5,0.3,0.8,0.4c0.3,0,0.6,0.1,0.8,0.1c0.4,0,0.7-0.2,0.8-0.6c0.1-0.4,0.1-0.8,0-1.3 c-0.1-0.5-0.4-0.9-0.8-1.3c-0.3-0.2-0.6-0.4-0.9-0.5c-0.2-0.1-0.5-0.2-0.7-0.2c-0.1,0-0.6-0.3-1.4-0.8c-0.8-0.6-1.6-1.2-2.5-1.9 c-0.8-0.7-1.4-1.2-1.7-1.6c-0.3-0.2-0.7-0.6-1.1-1.3c-0.4-0.6-0.7-1.1-0.8-1.5l-1.2-2l1.9-1.6C321.2,34.1,322.1,33.3,322.8,32.8z M373.6,11.8c-0.5-2.1-1.4-3.9-2.7-5.4c-1.3-1.5-3.2-2.7-5.8-3.5c-0.8-0.4-1.5-0.6-2.3-0.6c-0.7,0-1.4,0.1-2.1,0.3 c-0.6,0.1-1.2,0.3-1.8,0.7c-0.6,0.3-1.1,0.7-1.5,1c-0.2,0.7-0.1,1.4,0.4,2.1c0.5,0.7,1,1.2,1.6,1.4c1.8-0.8,3.4-0.9,4.9-0.4 c1.4,0.5,2.7,1.6,3.9,3.2c0.6,0.8,1.1,2,1.3,3.4s0.3,2.9,0.2,4.4c-0.1,1.5-0.2,2.8-0.5,4c-0.3,1.2-0.6,1.9-1,2.2 c-0.3-0.2-0.6-0.5-0.8-0.7c-0.2-0.2-0.6-0.4-1.2-0.6c-1.1-0.4-2-0.5-2.8-0.2c-0.8,0.3-1.6,0.6-2.4,1c-1.2,0.6-2.4,1.4-3.5,2.5 c-1.1,1.1-2.1,2.2-2.8,3.3c-0.8,1.1-1.3,2-1.5,2.7c-0.3,0.6-0.8,1.6-1.4,2.9c-0.6,1.3-0.9,2.6-0.8,3.8c0,0.8,0.1,1.6,0.1,2.4 c0,0.8,0.2,1.6,0.6,2.3c0,0.7,0.2,1.3,0.5,1.8c0.3,0.5,0.7,1,1.1,1.5c0.3,0.3,0.8,0.7,1.4,1.1c0.6,0.4,1.2,0.7,1.7,0.9 c0.5,0.2,0.9,0.3,1,0.3c2.3-0.5,4.4-1.7,6.3-3.4c1.9-1.7,3.6-3.8,5.1-6.1c1.5-2.4,2.7-4.8,3.6-7.2c0-0.5,0.2-1,0.5-1.6 c0.3-0.5,0.5-1.2,0.6-2.1c0.3-0.7,0.5-1.5,0.3-2.4c-0.1-0.9,0.1-1.6,0.6-2.3c0.1-1.4,0.2-2.4,0.3-3.1c0-0.6,0-1.3-0.1-2.1 C374.4,16.4,374.1,13.9,373.6,11.8z M368.3,29.4c-0.1,1.1-0.3,2.3-0.8,3.5c0,0.2-0.3,0.7-0.6,1.4c-0.4,0.7-0.8,1.5-1.2,2.3 c-0.4,0.8-0.8,1.4-1,1.7c-0.7,1-1.6,2-2.6,3.1c-1,1.1-2,1.9-3,2.5c-1,0.6-1.7,0.8-2.2,0.6c-0.5-0.2-0.9-0.8-1.2-1.6 c-0.2-0.8-0.4-1.6-0.4-2.4c0-0.2,0.1-0.9,0.3-2c0.2-1.1,0.6-2.2,1.3-3.4c0.2-0.2,0.5-0.5,0.7-0.7c0.2-0.2,0.3-0.5,0.3-0.9 c0.6-0.8,1.3-1.7,1.9-2.6c0.6-1,1.3-1.7,2.1-2.3c1.1-0.8,2.2-1.4,3.4-1.7c1.2-0.3,2.1-0.2,2.6,0.4 C368.2,27.6,368.4,28.3,368.3,29.4z M395.4,23.4c-0.3-0.5-0.8-0.9-1.4-1.2c-0.6-0.3-1.4-0.5-2.5-0.7c-1.1-0.1-1.9-0.2-2.4-0.2 c-0.5,0-1.1,0.2-1.9,0.7c-1.5,0.6-3.1,1.7-4.6,3.2c-1.6,1.5-2.9,3.3-4,5.2c-1.1,1.9-1.7,3.9-1.8,5.8c-0.2,2.3-0.2,4.1,0.1,5.5 c0.2,1.4,0.8,2.6,1.6,3.7c0.8,1.2,1.9,2.1,3.2,2.6c1.3,0.6,2.6,0.8,4,0.6c1.4-0.1,2.5-0.7,3.6-1.6c1.1-0.7,2-1.4,2.8-2.3 c0.8-0.8,1.3-1.5,1.6-2.1c0.3-0.6,0.2-0.9-0.3-0.9c-0.2-0.1-0.4-0.3-0.6-0.5c-0.2-0.2-0.4-0.3-0.7-0.3c-0.2,0-0.5,0.1-0.7,0.3 c-0.2,0.2-0.5,0.4-0.8,0.8c-0.5,0.5-0.8,0.8-0.9,0.9c-0.1,0.1-0.3,0.2-0.5,0.3c-0.2,0.1-0.7,0.4-1.5,0.8c-0.8,0.5-1.5,0.7-2.1,0.6 c-0.6-0.1-1.3-0.2-2.3-0.4c-0.8-0.1-1.5-0.7-2-1.5c-0.5-0.9-0.6-2.2-0.4-4.1c0.2-2,0.5-3.2,0.8-3.7s0.9-0.6,1.8-0.2 c0.8,0.6,1.9,0.9,3.2,1c1.3,0,2.5-0.1,3.5-0.4c2-1,3.7-2.3,4.9-3.8c1.3-1.6,2-2.9,2.2-4c0-0.7-0.1-1.4-0.4-2.1 C396.7,24.9,396.2,24.1,395.4,23.4z M392.4,28.9c-0.4,0.6-0.9,1.1-1.5,1.6c-0.6,0.5-1.2,0.8-1.7,1.1c-0.5,0.2-1.2,0.4-2.1,0.4 c-0.9,0-1.6,0-2.3-0.1c-0.7-0.1-1.1-0.3-1.3-0.6c-0.1-0.1,0-0.4,0.4-1c0.4-0.5,0.9-1.2,1.5-1.8c0.6-0.7,1.3-1.3,2-1.9 c0.7-0.6,1.3-0.9,1.8-1.1c1.3-0.3,2.2-0.3,2.9,0.2c0.6,0.5,1,1,1,1.7C393,27.9,392.8,28.3,392.4,28.9z M424.4,23.2 c-0.7-0.1-1.5,0-2.1,0.4c-0.1,0.3-0.3,0.8-0.5,1.3c-0.2,0.5-0.3,0.9-0.3,1c-0.8,1.4-1.4,2.7-1.8,4c-0.4,1.3-0.9,2.7-1.5,4.2 c0,0-0.5-0.1-1.4-0.1c-0.9,0-1.7,0-2.7,0.1c-0.9,0-1.5,0.1-1.7,0.1c-0.5,0-1.2,0.1-2.2,0.3c-1,0.2-1.7,0.2-2.2-0.1v-0.6l3.8-9.4 c0.1-0.1,0.1-0.3,0.1-0.6c0-0.2,0-0.5,0.1-0.8c0-0.6-0.3-1.1-0.9-1.5c-0.5-0.4-1.2-0.6-2.1-0.6c-0.3,0-0.5,0.1-0.7,0.2 c-0.2,0.1-0.3,0.3-0.4,0.6c0,0-0.1,0.5-0.4,1.3c-0.3,0.8-0.6,1.7-0.8,2.5c-0.3,0.8-0.5,1.3-0.6,1.6c0,0.1-0.1,0.1-0.1,0.3 c-0.1,0.4-0.3,0.9-0.6,1.6c-0.2,0.7-0.5,1.5-0.9,2.5c-0.5,1-0.9,2-1.3,3.2c-0.4,1.1-0.8,2.2-1.1,3.3c-0.2,0.6-0.4,1.2-0.5,1.8 c-0.1,0.6-0.3,1.3-0.5,2l-1.2,5.7c0.2,0.2,0.5,0.5,0.7,0.7c0.2,0.2,0.5,0.4,0.7,0.5c1,0.6,1.8,0.8,2.3,0.5c0.5-0.2,0.8-0.9,0.8-2 c0-0.7,0.1-1.4,0.3-2c0.1-0.6,0.2-1.3,0.3-1.9c0-0.8,0.2-1.7,0.6-2.7c0.4-1,0.6-1.7,0.7-2.2l0.4-0.2c0.3,0.1,0.8,0.2,1.4,0.3 c0.7,0.1,1.3,0.1,2,0.1c0.7,0,1.1-0.1,1.4-0.2c0,0,0.2,0,0.6-0.1c0.5-0.1,1-0.2,1.7-0.3c0.7-0.1,1.3-0.2,2-0.3 c0.6-0.1,1-0.1,1.2,0c-0.2,1.2-0.4,2.2-0.6,2.8c-0.2,0.7-0.4,1.4-0.6,2.1c-0.2,0.6-0.3,1.1-0.4,1.5c0,0.4,0,0.8,0,1.1 c0.3,0.2,0.6,0.4,0.9,0.6c0.3,0.1,1,0.4,2,0.8c0.1,0,0.3-0.2,0.6-0.4c0.3-0.2,0.5-0.5,0.6-0.9c0.2-0.6,0.4-1.5,0.7-2.6 c0.3-1.2,0.5-2.2,0.7-3.3c0.2-1,0.4-1.6,0.4-1.7c0-0.2,0.2-0.4,0.4-0.5c0.2-0.1,0.4-0.2,0.5-0.2c0.4,0,0.7-0.2,1-0.4 c0.2-0.2,0.7-0.4,1.3-0.5c0-0.6,0-1.1-0.2-1.6c-0.2-0.5-0.7-0.7-1.4-0.7v-0.2c0.1-0.1,0.3-0.7,0.7-1.6c0.4-0.9,0.8-1.9,1.3-2.9 c0.5-1,0.9-1.9,1.2-2.5c0.3-0.7,0.4-0.8,0.3-0.6c0.3-0.8,0.2-1.4-0.2-2C425.7,23.6,425.1,23.3,424.4,23.2z M406,27.3 C406,27.3,406,27.3,406,27.3C406.1,27.2,406.1,27.2,406,27.3z M449.9,23.4c-0.3-0.5-0.8-0.9-1.4-1.2c-0.6-0.3-1.4-0.5-2.5-0.7 c-1.1-0.1-1.9-0.2-2.4-0.2c-0.5,0-1.1,0.2-1.9,0.7c-1.5,0.6-3.1,1.7-4.6,3.2c-1.6,1.5-2.9,3.3-4,5.2c-1.1,1.9-1.7,3.9-1.8,5.8 c-0.2,2.3-0.2,4.1,0.1,5.5c0.2,1.4,0.8,2.6,1.6,3.7c0.8,1.2,1.9,2.1,3.2,2.6c1.3,0.6,2.6,0.8,4,0.6c1.4-0.1,2.5-0.7,3.6-1.6 c1.1-0.7,2-1.4,2.8-2.3c0.8-0.8,1.3-1.5,1.6-2.1c0.3-0.6,0.2-0.9-0.3-0.9c-0.2-0.1-0.4-0.3-0.6-0.5c-0.2-0.2-0.4-0.3-0.7-0.3 c-0.2,0-0.5,0.1-0.7,0.3c-0.2,0.2-0.5,0.4-0.8,0.8c-0.5,0.5-0.8,0.8-0.9,0.9c-0.1,0.1-0.3,0.2-0.5,0.3c-0.2,0.1-0.7,0.4-1.5,0.8 c-0.8,0.5-1.5,0.7-2.1,0.6c-0.6-0.1-1.3-0.2-2.3-0.4c-0.8-0.1-1.5-0.7-2-1.5c-0.5-0.9-0.6-2.2-0.4-4.1c0.2-2,0.5-3.2,0.8-3.7 s0.9-0.6,1.8-0.2c0.8,0.6,1.9,0.9,3.2,1c1.3,0,2.5-0.1,3.5-0.4c2-1,3.7-2.3,4.9-3.8s2-2.9,2.2-4c0-0.7-0.1-1.4-0.4-2.1 C451.1,24.9,450.6,24.1,449.9,23.4z M446.8,28.9c-0.4,0.6-0.9,1.1-1.5,1.6c-0.6,0.5-1.2,0.8-1.7,1.1c-0.5,0.2-1.2,0.4-2.1,0.4 c-0.9,0-1.6,0-2.3-0.1c-0.7-0.1-1.1-0.3-1.3-0.6c-0.1-0.1,0-0.4,0.4-1c0.4-0.5,0.9-1.2,1.5-1.8c0.6-0.7,1.3-1.3,2-1.9 c0.7-0.6,1.3-0.9,1.8-1.1c1.3-0.3,2.2-0.3,2.9,0.2c0.6,0.5,1,1,1,1.7C447.5,27.9,447.2,28.3,446.8,28.9z M475.5,22.8 c-0.6-0.6-1.4-0.9-2.2-0.9c-0.6-0.1-1.3-0.1-2-0.1c-0.7,0-1.3,0.1-2,0.1c-0.3,0.1-1,0.3-2,0.6c-1,0.2-2,0.4-3,0.6 c-1,0.1-1.7,0.2-2,0.1c-0.3-0.1-0.6-0.2-0.8-0.1c-0.2,0-0.6,0-1.1,0c-0.2,0.5-0.5,1-0.8,1.4c-0.3,0.4-0.4,1.1-0.3,2v0.8 c0,0.2,0,0.4-0.1,0.6c-0.5,1.6-1,3-1.4,4.2c-0.4,1.2-0.8,2.4-1.2,3.6c-0.4,1.2-0.9,2.6-1.4,4.3c-0.2,0.5-0.4,1.3-0.7,2.3 c-0.3,1-0.6,2.1-0.8,3.1c-0.2,1-0.3,1.8-0.3,2.4c0.3,0.3,0.6,0.5,0.8,0.7c0.2,0.2,0.3,0.3,0.5,0.4c0.1,0.1,0.3,0.3,0.4,0.5 c0.2,0,0.5,0,0.7,0c0.2,0,0.5,0,0.7,0c0.4-0.8,0.8-1.7,1.1-2.5c0.3-0.9,0.5-1.7,0.7-2.6c0.1-0.4,0.3-1,0.5-1.8 c0.2-0.8,0.5-1.7,0.8-2.5c0.3-0.8,0.5-1.4,0.7-1.7c0.2-0.6,0.5-1.4,0.8-2.3c0.3-0.9,0.6-1.8,0.9-2.5c0.3-0.7,0.4-1.1,0.4-1 c0.1-0.4,0.3-1,0.5-1.8c0.2-0.8,0.4-1.6,0.7-2.3c0.2-0.7,0.5-1.2,0.7-1.5c0.6-0.2,1.2-0.4,2-0.4c0.7,0,1.4-0.1,2-0.3 c0.7-0.2,1.6-0.4,2.6-0.5c1.1-0.1,2.1-0.1,3-0.1h1.8c0.1-0.1,0.3-0.3,0.4-0.4c0.1-0.1,0.2-0.3,0.3-0.5c0.1-0.2,0.2-0.4,0.3-0.6 C476.6,23.9,476.2,23.4,475.5,22.8z"></path> </g> </g> </svg> 