<?xml version="1.0" encoding="UTF-8"?> <!-- Generator: Adobe Illustrator 25.2.1, SVG Export Plug-In . SVG Version: 6.00 Build 0) --> <svg xmlns="http://www.w3.org/2000/svg" xmlns:xlink="http://www.w3.org/1999/xlink" id="за_6_месяцев_1_" x="0px" y="0px" viewBox="0 0 338 72" style="enable-background:new 0 0 338 72;" xml:space="preserve"> <style type="text/css"> .st0{fill:#141517;} </style> <g id="за_6_месяцев"> <g> <path class="st0" d="M26.4,22.1c-0.3,0-0.7,0.1-1,0.2c-0.3,0.1-0.6,0.2-0.9,0.2c-0.3,0-0.7,0.1-1,0.2c-0.3,0.1-0.6,0.3-0.9,0.5 c-0.3,0.2-0.7,0.4-1,0.6s-0.6,0.4-1,0.6c-0.3,0.4-0.6,0.9-1,1.3c-0.4,0.4-0.7,0.8-1,1.2c-0.3,0.4-0.5,0.9-0.6,1.4 c0.2,0.6,0.5,1.1,0.8,1.6c0.3,0.5,0.9,0.6,1.7,0.3c1.3-1.1,2.6-2,3.8-2.7c1.2-0.7,2.3-1,3.3-1c1.6,0.2,2.4,0.7,2.6,1.6 c0.2,0.9-0.1,1.8-0.8,2.8c-1.1,1.5-2.3,3-3.8,4.3c-1.4,1.3-2.8,2.5-4.2,3.4c-1.4,1-2.5,1.7-3.4,2.1c-0.4,0.2-0.8,0.4-1,0.7 c-0.2,0.3-0.4,0.7-0.5,1.1c0.4,0.8,0.7,1.5,1,2.2c0.3,0.7,0.7,1.3,1.1,1.8c0.8,0.7,1.2,1.7,1.2,3.2c0,1.4,0,2.8-0.1,4.1 c-1.1,0.3-2.1,0.6-2.8,0.8c-0.7,0.2-1.7,0.5-2.8,0.8c-0.3-0.1-0.6-0.1-0.7,0.1s-0.3,0.3-0.6,0.4c-0.3-0.2-0.6-0.2-0.6,0.1 c-0.1,0.3-0.2,0.4-0.5,0.4c-0.2,0-0.5,0.1-0.8,0.2c-0.3,0.1-0.5,0.2-0.8,0.3c-2,0.7-3.7,1.5-5.2,2.5c-1.5,1-2.7,2.1-3.8,3.3 c-0.4,0.5-0.7,1.1-0.9,1.7c-0.2,0.7-0.3,1.1-0.3,1.4c0.6,0.6,1.1,1,1.3,1.4c0.2,0.3,0.6,1,1,2.1c0.9,0.9,1.8,1.5,2.8,1.9 c1,0.4,2.1,0.6,3.1,0.6c0.7,0,1.4-0.1,2.1-0.2c0.7-0.1,1.5-0.3,2.3-0.6c0.4,0,0.9-0.2,1.6-0.6c0.6-0.4,1.3-0.9,1.8-1.4 c1.7-1.4,2.9-2.8,3.7-4.2c0.8-1.4,1.4-2.7,1.9-3.9c0.5-1.3,1.1-2.4,1.8-3.4c0.9-0.4,1.9-0.6,2.9-0.5c1,0,1.8,0,2.4-0.1 c0.2,0,0.5-0.2,0.7-0.4c0.2-0.2,0.3-0.5,0.2-0.8c0-0.4-0.2-0.9-0.7-1.3c-0.4-0.4-0.9-0.8-1.3-1.3c-0.4,0-1,0.1-1.8,0.3 c-0.8,0.2-1.4,0.2-1.9,0.1c0.2-0.7,0.2-1.8-0.1-3.1c-0.3-1.3-0.7-2.6-1.2-3.8c-0.5-1.3-1-2.2-1.4-2.7c0.1-0.1,0.6-0.5,1.5-1.1 c0.8-0.6,1.8-1.2,2.9-2c1.1-0.8,2.2-1.6,3.2-2.4c1-0.8,1.7-1.6,2.2-2.4c1.6-2.6,2.4-4.7,2.5-6.4c0.1-1.6-0.5-3.3-1.8-5 C30.5,23.1,28.7,22.2,26.4,22.1z M16.9,60.8c-0.2,0.5-0.5,0.9-0.7,1.3c-0.6,0.9-1.3,1.8-2,2.6c-0.7,0.8-1.5,1.5-2.5,2.1 c-0.8,0.4-1.7,0.8-2.7,1c-1,0.2-1.9,0.3-2.6,0.4c-0.7,0-1.1,0-1.1-0.1c-0.4,0-0.7-0.1-1-0.3c-0.3-0.2-0.6-0.5-0.8-0.8 c0.3-0.2,0.7-0.5,1-0.8s0.6-0.6,0.8-1c0.8-1,2.1-1.9,3.7-2.7c1.6-0.8,3-1.4,4.1-1.8c1.1-0.4,2-0.8,2.8-1.3 c0.8-0.4,1.4-0.5,1.7-0.1C17.3,59.9,17.1,60.4,16.9,60.8z M64.7,43.4c-0.3-0.2-0.7-0.4-1.1-0.4c-0.7-0.1-1.4-0.4-2.2-0.9 c-0.8-0.5-1.3-1-1.5-1.6c-0.6-1.1-1.1-2.4-1.4-3.8c-0.3-1.5-0.2-3.2,0.5-5.2l1.3-3.7l-2.7-2.4c-0.5-0.4-1-0.9-1.4-1.3 c-0.5-0.4-0.9-0.8-1.2-1.1c-0.3-0.3-0.6-0.6-0.7-0.7c-0.8-0.6-1.7-0.9-2.8-0.7c-1.1,0.1-2.2,0.6-3.2,1.3c-0.5,0.3-1.1,0.8-1.8,1.4 c-0.7,0.7-1.5,1.4-2.1,2.1c-0.7,0.7-1.3,1.4-1.7,2c-0.5,0.6-0.7,1-0.7,1.3v0.4c-0.2,0-0.4,0.1-0.5,0.3c-0.1,0.2-0.2,0.4-0.2,0.6 c-0.2,0.2-0.5,0.6-0.9,1.3c-0.4,0.6-0.8,1.2-1.2,1.6c-0.9,1.7-1.7,3.4-2.4,4.9c-0.7,1.6-1.2,2.9-1.5,3.9c-0.3,1.1-0.3,1.7-0.1,2 c0.2,0.2,0.3,0.4,0.3,0.6c0,0.2,0,0.4,0,0.6c0,0.2,0.1,0.4,0.4,0.6c0.3,0.2,0.5,0.5,0.7,0.9c1.7,1.1,3.8,1,6.3-0.2 c2.5-1.2,5.6-3.6,9.1-7.1c0.3-0.3,0.7-0.8,1.3-1.4c0.5-0.7,0.9-1.1,1.1-1.4c0,0.2,0.2,0.8,0.6,1.6c0.3,0.8,0.6,1.4,0.8,1.7 c1.2,2.3,2.5,3.9,3.9,4.9c1.4,1,2.9,1.4,4.5,1.2c0.5-0.1,0.8-0.3,1-0.6c0.2-0.3,0.3-0.7,0.3-1.2C65.2,44,65,43.6,64.7,43.4z M53.2,31.4c-1,1.5-2.4,3.1-4.1,4.8c-1.7,1.7-3.4,3.3-5.1,4.7c-1.2,1-2.4,1.7-3.4,2c-1.1,0.4-1.6,0.4-1.6,0 c0.7-1.8,1.4-3.2,1.8-4.2c1.3-2.4,2.6-4.5,4.1-6.5c1.4-2,2.8-3.5,4-4.7s2.2-1.8,2.8-1.8c0.4,0,0.9,0.2,1.4,0.6 c0.6,0.4,1.1,1.2,1.6,2.3L53.2,31.4z M111.1,25.8c-0.6-0.7-1.1-1.2-1.5-1.4c-0.4-0.2-1.1-0.4-2.2-0.6c-0.5-0.1-1.1-0.2-1.9-0.4 c-0.8-0.1-1.4-0.1-1.8,0.1c-1.1,0.1-2.3,0.3-3.4,0.6c-1.1,0.3-1.7,0.6-1.7,0.8c0,0.2-0.4,0.4-0.9,0.5c-0.6,0.1-0.9,0.1-1.1-0.2 c1-1.2,1.8-2.2,2.4-2.8c0.1-0.2,0.3-0.5,0.7-0.9c0.3-0.4,0.7-0.8,1.2-1.2c0.7-0.8,1.7-1.6,2.8-2.4c1.1-0.8,2.2-1.5,3.1-2.1 c1-0.5,1.6-0.8,1.9-0.7c0.5,0.1,0.7,0.3,0.7,0.5c0.2,0.2,0.4,0.3,0.7,0.2c0.3,0,0.8-0.3,1.4-0.8c0.7-0.6,1.1-1.1,1.2-1.4 c0.1-0.3,0.1-0.6,0-1c-0.1-0.2-0.3-0.5-0.4-0.8c-0.1-0.3-0.3-0.4-0.5-0.5c-0.4-0.1-0.7-0.3-1-0.6c0.1-0.6-0.6-0.6-2.2-0.1 c-0.8,0.1-1.6,0.3-2.5,0.7c-0.9,0.4-1.8,0.9-2.7,1.4c-0.9,0.5-1.7,1.1-2.4,1.7c-0.7,0.6-1.3,1.1-1.7,1.6c-0.2,0.3-0.5,0.6-0.7,0.7 c-0.2,0.1-0.5,0.3-0.7,0.4c-0.8,1.1-1.5,2-2,2.7c-0.5,0.6-1.1,1.2-1.6,1.9c-0.5,0.7-0.9,1.2-1.1,1.6c-0.2,0.3-0.6,1-1.1,2 c-0.5,1.1-1,2.1-1.4,3.1C89.9,29.9,89.3,31,89,32c-0.3,1-0.6,2.4-1,4.2c-0.2,1.3-0.4,2.3-0.6,3c-0.1,0.6-0.2,1.2-0.1,1.6 c0,0.4,0.2,1,0.4,1.8c0.1,1,0.4,1.7,0.7,2.2c0.3,0.5,0.9,1,1.6,1.6c1,1,2.1,1.5,3.2,1.7c1.1,0.1,2.4,0,4.1-0.5 c0.8-0.2,1.7-0.5,2.7-1c1-0.4,2-0.9,3-1.5c1-0.5,1.8-1,2.5-1.5c0.7-0.5,1-0.8,1.1-1.1c0.3-0.2,0.6-0.4,0.8-0.5 c0.4-0.3,1-0.8,1.6-1.5c0.6-0.7,1.2-1.5,1.9-2.3c0.6-0.9,1.2-1.6,1.6-2.3c0.5-0.6,0.9-1.3,1-1.8c0.1-0.6,0.2-1.3,0.2-2.1 c0-1.3-0.1-2.4-0.5-3.3C112.8,27.7,112.1,26.8,111.1,25.8z M108.5,35.2c-1.4,2-3.4,3.9-6.1,5.6c-0.9,0.5-2.1,1.3-3.5,2.2 c-0.2,0-0.5,0-0.8,0.1c-0.3,0.1-0.7,0.2-1.1,0.3c-1.2,0.5-2.1,0.8-2.6,0.8c-0.5,0-1.2-0.1-2.1-0.3c-0.3-0.1-0.7-0.2-1-0.4 s-0.5-0.5-0.6-1.1c-0.2-0.4-0.3-0.9-0.3-1.5c0-0.6,0.2-1.7,0.6-3.4c0.5-2.5,1-4.1,1.4-5c0.4-0.9,0.9-1.4,1.5-1.4 c0.3-0.1,0.7-0.3,1.1-0.5c0.4-0.2,0.7-0.4,0.9-0.6c0.4-0.1,0.9-0.3,1.3-0.5c0.4-0.2,0.8-0.4,1.2-0.5c2.3-0.5,4-0.9,5.1-1.1 c1.1-0.2,1.9-0.4,2.5-0.4c0.6,0,1.1,0,1.7,0.1c0.5,0.1,1,0.2,1.3,0.3c0.3,0.1,0.6,0.1,0.7,0.1c0,0.2,0,0.5,0.2,0.8 c0.2,0.4,0.2,0.8,0.2,1.1C110.5,31.5,109.9,33.2,108.5,35.2z M169.1,23.9c-0.3-0.2-0.9-0.5-1.7-1c-0.2-0.1-0.5-0.2-0.8-0.2 c-0.3,0-0.5,0.2-0.6,0.4c-0.1,0.2-0.6,0.7-1.4,1.4c-0.8,0.8-1.7,1.7-2.7,2.7c-1.1,1.1-2.1,2.2-3.2,3.3c-1.1,1.2-2,2.2-2.8,3.2 c-0.7,0.7-1.2,1-1.5,0.7c-0.3-0.3-0.5-0.7-0.5-1.4c0.2-0.5,0.2-1.1,0-1.8c-0.2-0.6-0.2-1.3-0.1-1.8c-0.3-1.1-0.5-2-0.6-2.5 c0-0.5,0-1.1,0-1.6c-0.5-0.4-1.1-0.8-1.6-1.1c-0.5-0.4-0.9-0.7-1.3-1.1c-0.7-0.1-1.2,0-1.6,0.1c-0.3,0.2-0.6,0.5-0.7,1 c-0.1,0.3-0.3,0.6-0.4,0.8c-0.1,0.3-0.3,0.5-0.6,0.6c-0.2,0.1-0.5,0.4-1,1c-0.5,0.6-1,1.2-1.4,1.7c-0.4,0.6-0.7,0.9-0.7,1.1 c-0.3,0.5-0.7,1-1.1,1.4s-0.7,0.9-0.9,1.4c0,0.1-0.2,0.4-0.5,0.8c-0.3,0.4-0.7,1-1.3,1.7c-0.5,0.7-1.2,1.7-2,2.8 c-0.8,1.2-1.7,2.5-2.8,4.2c-0.1,0.2-0.2,0.4-0.4,0.5c-0.1,0.1-0.4,0.2-0.8,0.5c0,0.5,0.1,0.9,0.3,1.3c0.1,0.4,0.3,0.7,0.5,1.1 c0.3,0.2,0.7,0.4,1.1,0.7c0.4,0.2,0.8,0.5,1.2,0.7c0.2,0.2,0.5,0.3,0.8,0.1c0.3-0.2,0.6-0.6,0.8-1.1c0.2-0.5,0.4-1,0.6-1.4 c0.2-0.4,0.5-0.9,0.8-1.3c0,0,0.2-0.3,0.6-1.1c0.5-0.8,1.1-1.7,1.8-2.8c0.7-1.1,1.5-2.2,2.3-3.3c0.8-1.1,1.4-2,1.8-2.7 c0.5-0.7,0.7-1,0.6-1c0.3-0.5,0.5-0.8,0.7-0.9c0.2-0.1,0.6-0.2,1.1-0.2c0.2,0.5,0.3,1.4,0.3,2.6c0,1.3,0,2.6,0,3.9 c0,1.4,0,2.4,0,3.1c-0.1,0.4,0,0.9,0.1,1.3c0.2,0.4,0.5,0.9,1,1.4c0.5,0.5,0.9,0.8,1.1,0.9c0.2,0.1,0.6,0.3,1.3,0.5 c0.2-0.2,0.5-0.4,0.7-0.6c0.2-0.2,0.4-0.5,0.5-0.8c0.3-0.8,0.7-1.6,1.2-2.2c0.5-0.6,0.9-1.1,1.1-1.5l2.7-3.5 c0-0.3,0.1-0.6,0.4-0.8c0.2-0.2,0.5-0.4,0.7-0.6c0.5-0.5,1-1.1,1.4-1.6c0.4-0.5,0.9-1,1.4-1.5c0.2-0.2,0.4-0.3,0.5-0.2 c0.1,0,0.3,0.2,0.4,0.4c-0.1,0.5-0.3,1.3-0.5,2.5c-0.2,1.2-0.4,2.4-0.6,3.6c-0.1,1.3-0.2,2.3-0.1,3.1c-0.2,0.3-0.2,0.8,0,1.2 c0.2,0.5,0.2,0.9,0.2,1.3c0,0.7,0,1.4,0.3,2.1c0.2,0.7,0.4,1.4,0.6,2.1c0.6,0.3,1,0.7,1.3,0.9c0.2,0.3,0.6,0.5,1.1,0.8 c0.8-0.2,1.3-0.5,1.5-0.9c0.2-0.4,0.1-1.4-0.3-2.9c-0.2-1.1-0.3-2.2-0.2-3.3c0-1.1,0.1-2.1,0.1-3.1c0-0.6,0.2-1.5,0.4-2.7 c0.2-1.2,0.5-2.4,0.8-3.7c0.3-1.3,0.6-2.5,1-3.7c0.3-1.1,0.6-1.9,0.8-2.4c0.3-0.5,0.3-1.2-0.2-1.8 C169.8,24.5,169.4,24.1,169.1,23.9z M194.9,23.4c-0.3-0.5-0.8-0.9-1.4-1.2c-0.6-0.3-1.4-0.5-2.5-0.7c-1.1-0.1-1.9-0.2-2.4-0.2 c-0.5,0-1.1,0.2-1.9,0.7c-1.5,0.6-3.1,1.7-4.6,3.2c-1.6,1.5-2.9,3.3-4,5.2c-1.1,1.9-1.7,3.9-1.8,5.8c-0.2,2.3-0.2,4.1,0.1,5.5 c0.2,1.4,0.8,2.6,1.6,3.7c0.8,1.2,1.9,2.1,3.2,2.6c1.3,0.6,2.6,0.8,4,0.6c1.4-0.1,2.5-0.7,3.6-1.6c1.1-0.7,2-1.4,2.8-2.3 c0.8-0.8,1.3-1.5,1.6-2.1c0.3-0.6,0.2-0.9-0.3-0.9c-0.2-0.1-0.4-0.3-0.6-0.5c-0.2-0.2-0.4-0.3-0.7-0.3c-0.2,0-0.5,0.1-0.7,0.3 c-0.2,0.2-0.5,0.4-0.8,0.8l-0.9,0.9c-0.1,0.1-0.3,0.2-0.5,0.3c-0.2,0.1-0.7,0.4-1.5,0.8c-0.8,0.5-1.5,0.7-2.1,0.6 c-0.6-0.1-1.3-0.2-2.3-0.4c-0.8-0.1-1.5-0.7-2-1.5c-0.5-0.9-0.6-2.2-0.4-4.1c0.2-2,0.5-3.2,0.8-3.7c0.3-0.5,0.9-0.6,1.8-0.2 c0.8,0.6,1.9,0.9,3.2,1c1.3,0,2.5-0.1,3.5-0.4c2-1,3.7-2.3,4.9-3.8c1.3-1.6,2-2.9,2.2-4c0-0.7-0.1-1.4-0.4-2.1 C196.2,24.9,195.7,24.1,194.9,23.4z M191.9,28.9c-0.4,0.6-0.9,1.1-1.5,1.6c-0.6,0.5-1.2,0.8-1.7,1.1c-0.5,0.2-1.2,0.4-2.1,0.4 c-0.9,0-1.6,0-2.3-0.1c-0.7-0.1-1.1-0.3-1.3-0.6c-0.1-0.1,0-0.4,0.4-1c0.4-0.5,0.9-1.2,1.5-1.8c0.6-0.7,1.3-1.3,2-1.9 c0.7-0.6,1.3-0.9,1.8-1.1c1.3-0.3,2.2-0.3,2.9,0.2c0.6,0.5,1,1,1,1.7C192.5,27.9,192.3,28.3,191.9,28.9z M220.7,38.4 c-0.3-0.2-0.7-0.3-1.1-0.4c-0.6,0-1,0-1.3,0.1c-0.3,0.1-0.6,0.4-1,1c-0.4,0.2-0.8,0.5-1.1,0.8c-0.3,0.3-0.6,0.6-0.9,0.7 c-0.7,0.5-1.6,1.1-2.6,1.8c-1,0.7-1.9,1.2-2.7,1.6c-0.5,0.3-1.4,0.5-2.6,0.6c-1.2,0.1-2.1,0.1-2.8-0.1c-0.1,0-0.3-0.5-0.3-1.3 c-0.1-0.8,0-1.8,0.3-3c0.7-2.9,1.6-5.3,2.5-7.3c0.9-1.9,2-3.5,3.1-4.8c1.1-1.2,2.3-2.2,3.5-2.9c1-0.4,1.6-0.4,2,0 c0.3,0.4,0.4,1.3,0.1,2.7c-0.2,0.9-0.4,1.7-0.6,2.3c-0.2,0.6-0.3,1-0.3,1.3c0.1,0.4,0.4,0.7,0.7,1c0.3,0.3,0.6,0.4,0.8,0.5 c0.3,0,0.4,0,0.4-0.3c0-0.2,0.1-0.4,0.3-0.4c0.2,0,0.4,0,0.6,0c0.4,0,0.8-0.3,1.3-1c0.5-0.7,0.8-1.5,1-2.4c0.3-0.5,0.4-1.2,0.4-2 c0-0.8-0.2-1.5-0.4-2.2c-0.2-0.6-0.5-1-0.8-1l-0.4-0.4c0-0.6-0.5-1.1-1.4-1.7c-0.9-0.5-1.8-0.9-2.5-1.1c-0.4,0-0.9,0-1.5,0.1 c-0.6,0.1-1.3,0.3-2,0.6c-0.8,0.3-1.7,1-2.7,2c-1,1-2,2.1-3,3.3c-1.1,1.4-2.2,3.1-3.1,5.1c-1,2-1.7,3.9-2.2,5.9 c-0.5,1.9-0.7,3.7-0.5,5.1c0,1.6,0.4,2.9,1.1,3.9c0.7,1,1.7,1.7,2.8,2.1c1.2,0.4,2.5,0.5,3.9,0.3c0.7-0.1,1.5-0.4,2.4-0.8 c0.9-0.4,1.7-0.8,2.4-1.2c0.7-0.4,1.1-0.6,1.1-0.7c0-0.3,0.2-0.4,0.7-0.4c0.3,0,0.8-0.3,1.5-0.8c0.7-0.5,1.5-1.1,2.3-1.9 c0.8-0.7,1.4-1.4,2-2c0.5-0.6,0.7-1,0.6-1.2c0-0.2,0.2-0.4,0.4-0.4c0.3-0.1,0.4-0.3,0.3-0.5C221.3,38.8,221.1,38.6,220.7,38.4z M245.3,36c-0.4-0.3-0.9-0.6-1.4-0.7c0,0-0.5-0.1-1.3-0.2c-0.8-0.1-1.5-0.2-2-0.3l-0.1-0.4c0.7-0.9,1.3-1.8,1.7-2.8 c0.5-1,0.9-2,1.4-2.9c0.5-1,0.9-2,1.2-3c0.3-1,0.5-2,0.8-3.1c-0.3-1.2-0.9-2-1.8-2.4c-0.9-0.4-2-0.8-3.3-1c-0.1,0-0.2-0.1-0.4,0 c-0.2,0-0.4,0-0.6,0c-0.5-0.2-1-0.2-1.5,0.1c-0.5,0.2-1,0.3-1.6,0.1c-0.3,0-0.9,0.2-1.6,0.6c-0.7,0.4-1.5,0.9-2.3,1.5 c-0.8,0.6-1.5,1.3-2,2c-0.7,0.9-1.2,1.7-1.4,2.3c-0.2,0.7-0.4,1.3-0.6,2c-0.1,0.7-0.4,1.5-0.8,2.5c0.1,0.1,0.2,0.7,0.4,1.8 c0.1,1.1,0.5,2,1,2.8c0.3,0.6,0.9,1.2,1.7,1.7c0.8,0.5,1.6,0.9,2.5,1.2c-1.1,1.7-2.2,3.2-3.4,4.5c-1.2,1.4-2.6,2.5-4.5,3.3 c-0.1-0.1-0.3-0.2-0.4-0.3c-0.1-0.1-0.2-0.1-0.3-0.1c-0.6-0.3-1.1-0.3-1.4,0.1c-0.3,0.4-0.6,0.8-0.7,1.2c0.1,0.4,0.3,0.8,0.5,1.2 c0.2,0.4,0.4,0.7,0.6,1.1c0.2,0.3,0.6,0.5,1,0.7c0.4,0.2,0.9,0.3,1.5,0.3c0.9,0,1.9-0.4,3-1.2c0.7-0.6,1.4-1.3,2-1.9 c0.6-0.6,1.2-1.3,1.9-1.9c0.6-0.6,1.2-1.3,1.7-2c0.5-0.7,1-1.4,1.5-2c0.2-0.5,0.5-0.9,0.8-1.1c0.3-0.2,0.6-0.4,0.9-0.6 c0.4,0,0.8,0.1,1.2,0.2c0.4,0.1,0.7,0.1,1,0.2h0.5c0,0.3-0.1,0.6-0.3,0.8c-0.3,0.7-0.7,1.5-1,2.3c-0.3,0.8-0.6,1.6-1,2.4 c-0.1,0.2-0.3,0.5-0.4,0.8c-0.1,0.3-0.2,0.6-0.3,0.8c-0.1,0.4-0.1,0.7,0.1,1c0.2,0.3,0.3,0.6,0.4,1c0.2,0.6,0.7,1,1.4,1.1 c0.4,0,0.7,0,0.8,0.1c0.1,0.1,0.2,0.1,0.3,0c0.1-0.1,0.4-0.3,0.8-0.8c0.2-0.4,0.4-1,0.6-1.8c0.1-0.7,0.3-1.4,0.5-1.8 c0.5-1.1,1.1-2.3,1.7-3.4c0.6-1.1,1.2-2.2,1.7-3.3c0.1-0.2,0.2-0.5,0.3-0.7c0-0.2,0-0.4,0-0.6C246.2,36.7,245.8,36.3,245.3,36z M240.1,27.4c-0.2,0.5-0.3,0.8-0.3,0.7c0,0.1-0.3,0.5-0.7,1.1c-0.4,0.6-0.8,1.3-1.4,2c-0.5,0.7-1,1.4-1.5,1.9 c-0.5,0.6-0.8,0.9-1.1,0.9c-1.4,0.5-2.4,0.2-3-0.9c-0.6-1.1-0.7-2.5-0.3-4.2c0.5-1.8,1.4-3.3,2.6-4.5c1.2-1.2,2.7-2,4.5-2.5 c0.5-0.2,1-0.3,1.4-0.3c0.4,0,0.9,0.2,1.6,0.7c0,0-0.1,0.4-0.4,1c-0.2,0.6-0.5,1.3-0.8,2.1C240.6,26.2,240.3,26.9,240.1,27.4z M277.3,43.1c-0.1-0.3-0.3-0.5-0.4-0.5c-0.7-0.5-1.4-0.8-2-0.8c-0.6,0-1.2,0-1.8,0l-2.4,0.3c0.1-0.4,0.5-1.2,0.9-2.4 c0.5-1.2,0.9-2.3,1.2-3.3l1.9-4.8c0-0.4,0-0.8,0.3-1.3c0.2-0.5,0.5-0.9,0.7-1.3c0.3-0.4,0.5-0.8,0.6-1.3c0.1-0.5,0.2-0.9,0.4-1.2 c0-0.6-0.2-1.1-0.6-1.5c-0.3-0.3-0.7-0.7-1.1-1c-0.2-0.2-0.5-0.4-0.9-0.4c-0.3,0-0.7,0-1.1,0c-0.7,0.3-1.3,0.9-1.8,2 c-0.5,1-0.8,2.2-0.8,3.4c-0.4,1.2-0.7,2.2-1,3c-0.3,0.8-0.6,1.7-1,2.9c-0.8,2.3-1.4,4-1.8,5.1c-0.4,1.1-0.7,1.9-0.8,2.4 c-0.1,0.5-0.2,0.9-0.3,1.3c0,0.1-0.3,0.3-1,0.7c-0.6,0.3-1.4,0.7-2.4,1c-1,0.3-2,0.5-3,0.7c-1,0.1-2,0-2.8-0.3 c-0.7-0.4-0.9-0.9-0.7-1.5c0.3-0.9,0.8-2.2,1.4-3.8c0.6-1.7,1.1-3.2,1.6-4.4c0.2-0.6,0.6-1.5,1.1-2.5c0.5-1.1,0.9-2.1,1.4-3.2 c0.5-1.1,0.8-2,1-2.7c0.3-1,0.5-1.8,0.6-2.4c0.1-0.6,0-1.1-0.3-1.4c-0.3-0.2-0.7-0.5-1.1-0.7c-0.4-0.2-0.9-0.4-1.4-0.5 c-0.6,0.2-1.2,0.6-1.6,1.1c-0.4,0.5-0.7,1.2-0.8,1.8c0,0.3-0.1,0.9-0.4,1.7c-0.3,0.8-0.5,1.5-0.8,2.3c-0.3,0.7-0.5,1.3-0.6,1.6 c-0.3,1.2-0.8,2.5-1.3,3.7c-0.5,1.2-1.1,2.4-1.7,3.5c-0.1,0.2-0.3,0.6-0.5,1.3c-0.2,0.6-0.5,1.3-0.7,2c-0.2,0.7-0.4,1.3-0.4,1.7 v1.3c0,0.7,0.2,1.4,0.5,2.2c0.3,0.8,0.9,1.5,1.7,2.1c0.7,0.5,1.6,0.8,2.6,1c1,0.2,2.8,0.2,5.4,0.2c1.3-0.4,2.3-0.7,3-0.9 c0.7-0.2,1.7-0.6,2.8-1.2c0.2,0,0.7-0.1,1.3-0.4c0.6-0.3,1.3-0.6,2-0.8c0.7-0.3,1.1-0.4,1.2-0.4c0.2-0.1,0.4-0.1,0.5,0.1 s0.2,0.3,0.1,0.6c0,0.3-0.2,0.9-0.6,1.7c-0.4,0.8-0.8,1.7-1.2,2.5c-0.4,0.8-0.6,1.3-0.7,1.4c-0.1,0.3-0.3,1-0.6,2 c-0.3,1-0.4,1.7-0.4,2.3c0.5,0.9,1.2,1.4,1.8,1.4c0.7,0,1.3-0.4,1.8-1.3c0.2-0.3,0.5-0.7,0.7-1c0.2-0.3,0.5-0.7,0.7-1 c0.4-0.7,0.9-1.6,1.5-2.8c0.6-1.2,1.2-2.4,1.7-3.5c0.5-1.2,0.9-2.1,1-2.8c-0.1-0.3-0.2-0.7-0.3-1.2 C277.5,43.8,277.4,43.4,277.3,43.1z M301.9,23.4c-0.3-0.5-0.8-0.9-1.4-1.2c-0.6-0.3-1.4-0.5-2.5-0.7c-1.1-0.1-1.9-0.2-2.4-0.2 c-0.5,0-1.1,0.2-1.9,0.7c-1.5,0.6-3.1,1.7-4.6,3.2c-1.6,1.5-2.9,3.3-4,5.2c-1.1,1.9-1.7,3.9-1.8,5.8c-0.2,2.3-0.2,4.1,0.1,5.5 c0.2,1.4,0.8,2.6,1.6,3.7c0.8,1.2,1.9,2.1,3.2,2.6c1.3,0.6,2.6,0.8,4,0.6c1.4-0.1,2.5-0.7,3.6-1.6c1.1-0.7,2-1.4,2.8-2.3 c0.8-0.8,1.3-1.5,1.6-2.1c0.3-0.6,0.2-0.9-0.3-0.9c-0.2-0.1-0.4-0.3-0.6-0.5c-0.2-0.2-0.4-0.3-0.7-0.3c-0.2,0-0.5,0.1-0.7,0.3 c-0.2,0.2-0.5,0.4-0.8,0.8c-0.5,0.5-0.8,0.8-0.9,0.9c-0.1,0.1-0.3,0.2-0.5,0.3c-0.2,0.1-0.7,0.4-1.5,0.8c-0.8,0.5-1.5,0.7-2.1,0.6 c-0.6-0.1-1.3-0.2-2.3-0.4c-0.8-0.1-1.5-0.7-2-1.5c-0.5-0.9-0.6-2.2-0.4-4.1c0.2-2,0.5-3.2,0.8-3.7c0.3-0.5,0.9-0.6,1.8-0.2 c0.8,0.6,1.9,0.9,3.2,1c1.3,0,2.5-0.1,3.5-0.4c2-1,3.7-2.3,4.9-3.8c1.3-1.6,2-2.9,2.2-4c0-0.7-0.1-1.4-0.4-2.1 C303.1,24.9,302.6,24.1,301.9,23.4z M298.8,28.9c-0.4,0.6-0.9,1.1-1.5,1.6c-0.6,0.5-1.2,0.8-1.7,1.1c-0.5,0.2-1.2,0.4-2.1,0.4 c-0.9,0-1.6,0-2.3-0.1c-0.7-0.1-1.1-0.3-1.3-0.6c-0.1-0.1,0-0.4,0.4-1c0.4-0.5,0.9-1.2,1.5-1.8c0.6-0.7,1.3-1.3,2-1.9 c0.7-0.6,1.3-0.9,1.8-1.1c1.3-0.3,2.2-0.3,2.9,0.2c0.6,0.5,1,1,1,1.7C299.5,27.9,299.3,28.3,298.8,28.9z M337.9,4.9 c-0.1-0.7-0.5-1.6-1.1-2.7c-0.3-0.4-0.9-0.8-1.8-1.2c-0.8-0.4-1.4-0.5-1.7-0.3c-0.7,0.2-1.6,0.4-2.7,0.6s-1.8,0.5-2,0.7 c-0.6,0.6-1.4,1.3-2.4,2.1c-1,0.8-2,1.6-3,2.5c-1,0.9-1.8,1.9-2.4,3c-1,0.8-1.8,1.8-2.5,2.9c-0.7,1.1-1.4,2.2-2.2,3.1 c-0.2,0.3-0.6,0.9-1.1,1.8c-0.5,0.9-0.9,1.7-1.3,2.6c-0.4,0.9-0.7,1.5-0.8,1.8c-0.5,1-1.2,1.9-2,2.5c-0.3,0.2-0.5,0.5-0.6,0.8 c-0.1,0.3-0.2,0.7-0.1,1.1c0.1,1,0,1.9-0.2,2.7c0,0.2-0.2,0.7-0.6,1.4c-0.3,0.8-0.5,1.2-0.6,1.4c0,0.2-0.3,1-0.7,2.4 c-0.4,1.4-0.9,4-1.6,7.8c-0.2,0.4-0.2,1.2,0,2.3c0.2,1.1,0.6,2,1.1,2.9c0.8,1.3,1.7,2,2.8,2.1c1.1,0.1,2,0.1,2.8,0.1l2.4-1.5 c0.8-0.7,1.6-1.5,2.4-2.3c0.8-0.8,1.4-1.8,2-2.9c0.4-0.5,0.7-1.1,1-1.8c0.3-0.6,0.6-1.3,0.9-1.9c0.2-0.7,0.4-1.4,0.5-2.1 c0.1-0.7,0.3-1.4,0.7-2c0-0.5,0-1.1,0.1-1.7c0.1-0.6,0.1-1.1,0.2-1.7c0.1-0.2,0.1-0.5,0.1-0.7c0-0.2-0.2-0.4-0.4-0.6 c-0.5-0.5-1.1-1-1.7-1.3c-0.6-0.3-1.2-0.6-1.8-0.7c-0.3-0.1-0.6-0.1-0.6,0.1c-0.1,0.1-0.3,0.3-0.7,0.6c0.2,0.5,0.3,0.9,0.4,1.3 c0.1,0.4,0.1,0.8,0.1,1.4c0,0.6,0,1.4,0,2.5c-0.2,0.5-0.4,1-0.5,1.7c-0.1,0.6-0.2,1.2-0.4,1.7c-0.3,0.9-0.8,1.7-1.3,2.6 c-0.5,0.8-1.1,1.6-1.7,2.4c-0.5,0.6-1,1.1-1.5,1.5c-0.4,0.4-1,0.6-1.8,0.8c-0.3-0.1-0.6-0.4-0.6-0.6c-0.1-0.3-0.1-0.5-0.2-0.8 c0-0.4,0-1.2,0.2-2.3c0.2-1.2,0.5-2.4,0.8-3.8c0.3-1.4,0.6-2.5,0.9-3.5c0.3-1,0.5-1.6,0.6-1.7c0.3-0.3,0.5-0.7,0.5-1.1 c0-0.5,0.2-1,0.5-1.7c0.2-0.5,0.4-0.9,0.7-1.1c0.3-0.3,0.6-0.5,1-0.6c0.7-0.2,1.4-0.5,2-0.8c0.7-0.3,1.3-0.6,2-1 c1-0.5,2.1-1.2,3.1-1.8c1-0.7,2-1.5,2.9-2.3c1.9-1.3,3.7-2.8,5.5-4.5c1.8-1.7,3.2-3.6,4.2-5.6c0.9-1.9,1.5-3.3,1.8-4.2 C337.9,6.4,338,5.6,337.9,4.9z M333.3,7.4c-0.3,0.5-0.6,1-0.8,1.6c-0.4,1.1-1.2,2.3-2.5,3.7c-1.3,1.4-2.9,2.9-4.8,4.4 c-1.9,1.5-4,3-6.4,4.5c-0.3,0.4-0.6,0.6-0.8,0.7c-0.3,0.1-0.7,0.1-1.3,0c0.5-1,1.2-2.2,2.2-3.5c1-1.4,2-2.8,3.1-4.2 c1.1-1.4,2.2-2.7,3.1-3.9c1-1.2,1.7-2,2.2-2.5c1.3-1.3,2.3-2.2,3.1-2.7c0.8-0.5,1.9-1.1,3.3-1.8l0.3,2.1 C333.8,6.4,333.6,7,333.3,7.4z"></path> </g> </g> </svg> 