<?xml version="1.0" encoding="UTF-8"?> <!-- Generator: Adobe Illustrator 25.2.1, SVG Export Plug-In . SVG Version: 6.00 Build 0) --> <svg xmlns="http://www.w3.org/2000/svg" xmlns:xlink="http://www.w3.org/1999/xlink" id="Давай_просто_прикинем..._1_" x="0px" y="0px" viewBox="0 0 708 74" style="enable-background:new 0 0 708 74;" xml:space="preserve"> <style type="text/css"> .st0{fill:#141517;} </style> <g id="Давай_просто_прикинем..."> <g> <path class="st0" d="M59.9,1.5c-0.8-0.5-1.6-0.8-2.5-0.8c-1.9,0-3.6,0-5.2,0.1c-1.6,0.1-3.3,0.2-5,0.3c-1.7,0.1-3.7,0.3-6,0.5 c-0.2,0.1-0.7,0.2-1.7,0.4c-1,0.2-2,0.3-3.2,0.5s-1.9,0.3-2.5,0.4c-0.6,0.1-1.2,0.2-1.7,0.2S31.3,3,31,3s-0.6-0.1-0.9,0 c-0.2,0.7-0.1,1.5,0.2,2.3c0.3,0.9,0.9,1.5,1.8,1.9c0.4,0.1,0.8,0.1,1.1,0c0.3-0.1,0.7-0.1,1.2,0.2c0,0.5-0.1,1.4-0.3,2.5 c-0.2,1.1-0.6,1.9-1,2.3c-1.2,3.5-2.2,6.7-3.2,9.6c-0.9,2.9-1.9,5.5-2.9,8c-1,2.5-2.1,4.9-3.4,7.2c-1.3,2.3-2.8,4.7-4.6,7.2 c-0.6,0.9-1.5,1.8-2.5,3c-1,1.1-2.1,2.1-3.2,3c-1.1,0.9-2.1,1.5-2.9,1.7l-5.4,0.9c-0.4,0.5-0.7,0.9-1,1.4 c-0.3,0.5-0.3,0.9-0.1,1.2l-1.4,6c-0.2,1-0.4,2.1-0.7,3.2c-0.3,1.1-0.5,2-0.8,2.7c-0.2,0.7-0.3,1-0.3,0.9c-0.1,0.4-0.1,0.8,0,1.2 c0.1,0.4,0.4,0.8,0.8,1.2C2.1,70.9,2.5,71.4,3,72c0.7-0.2,1.3-0.5,1.6-0.8c0.3-0.3,0.5-0.6,0.5-1c0.1-0.2,0.3-1,0.6-2.4 C6,66.4,6.5,64.6,7,62.6c0.5-2,1-3.9,1.6-5.7c0.7-0.1,1.3-0.4,1.8-0.8c0.5-0.4,1.4-0.6,2.7-0.6c-0.1,0,0.3,0,1.1-0.1 c0.8-0.1,1.9-0.2,3.1-0.3c1.3-0.1,2.5-0.3,3.8-0.4c1.3-0.1,2.4-0.2,3.4-0.3c1-0.1,1.5-0.2,1.6-0.2c1.2-0.2,2-0.2,2.6-0.2 c0.6,0,1.4-0.1,2.4-0.3c0.3-0.1,0.6-0.1,0.9-0.1c0.3,0,0.6,0,1,0l5-0.2c0.6-0.2,1.1-0.2,1.2-0.2c0.2,0,0.4,0.1,0.7,0.4 c2-0.1,3.6-0.1,5-0.2c1.4-0.1,2.6-0.1,3.7-0.2c1.1-0.1,1.8-0.2,2-0.4l0.6,0.6c-0.3,1.3-0.9,3-1.8,4.9s-2,3.9-3,5.9 c-0.5,1.1-0.9,1.9-1,2.6c-0.2,0.6-0.2,1.3,0,1.8c0.2,0.2,0.5,0.6,0.9,1.1c0.5,0.5,0.9,0.9,1.4,1.2c0.5,0.3,0.9,0.2,1.2-0.1 c0.5-0.7,0.8-1.2,0.8-1.3c0-0.1,0-0.2,0-0.3c0-0.1,0.1-0.5,0.3-1.2c0.9-1.6,1.8-3.4,2.8-5.4c1-2,1.8-4,2.6-6 c0.7-2.1,1.1-3.9,1.2-5.6c0-0.4-0.3-1-0.9-1.7c-0.6-0.7-1.4-1.3-2.6-1.6c-0.2-0.1-0.5-0.2-0.8-0.2c-0.3,0-0.5,0-0.5,0.1 c-0.3,0.3-0.6,0.5-0.9,0.7c-0.3,0.1-1.1,0.3-2.5,0.6c-0.7,0.1-1.1,0.1-1.4,0c-0.2-0.1-0.4-0.4-0.5-0.8c0.3-1.1,0.6-2,0.9-2.9 c0.3-0.9,0.5-1.7,0.8-2.6c0.6-1.5,1.2-3,1.7-4.5s1.1-2.8,1.5-4.2c0.8-1.9,1.7-4,2.6-6.5c0.9-2.5,1.8-5,2.7-7.6 c0.9-2.6,1.6-5.1,2.3-7.4c0.7-2.3,1.3-4.4,1.7-6.1c0.4-1.7,0.6-2.9,0.6-3.4C61.2,2.6,60.7,2,59.9,1.5z M54.2,12.2 c-1,3-2.2,6.6-3.7,10.8c-0.2,0.4-0.4,1.2-0.8,2.3c-0.4,1.1-0.9,2.4-1.4,3.8c-0.5,1.4-1.1,2.8-1.6,4.2c-0.5,1.4-0.9,2.5-1.3,3.4 C45,37.6,44.8,38,44.8,38c-0.4,1.1-0.9,2.3-1.3,3.4c-0.5,1.1-0.9,2.3-1.3,3.6c-0.4,1.3-0.8,2.6-1.1,4.1c-0.1,0.1-0.8,0.1-2.1,0.2 c-1.3,0.1-2.8,0.3-4.7,0.4c-1.8,0.2-3.8,0.4-5.8,0.5c-2,0.2-3.8,0.3-5.4,0.4c-1.6,0.1-2.8,0.2-3.6,0.2c1.7-1.4,3.3-3.3,4.8-5.7 c1.6-2.4,3.1-5.1,4.4-8c1.4-3,2.7-5.9,3.8-9c1.2-3,2.2-5.8,3.1-8.4c0.9-2.6,1.6-4.8,2.1-6.5c0.5-1.7,0.8-2.7,0.9-3l1.5-3.8 c0.8-0.3,1.9-0.6,3.2-0.9c1.4-0.3,2.8-0.5,4.4-0.6C49.6,5.1,51.1,5,52.6,5c1.5,0,2.7,0,3.6,0.2C55.9,6.9,55.2,9.3,54.2,12.2z M95,49c-0.4-0.3-0.8-0.4-1.2-0.5c-0.7-0.1-1.5-0.4-2.4-1c-0.8-0.5-1.4-1.1-1.6-1.7c-0.7-1.2-1.2-2.6-1.6-4.2 c-0.3-1.6-0.2-3.5,0.5-5.6l1.4-4l-3-2.6c-0.5-0.5-1.1-0.9-1.6-1.4c-0.5-0.5-0.9-0.9-1.3-1.2c-0.4-0.4-0.6-0.6-0.8-0.8 c-0.9-0.7-1.9-1-3.1-0.8c-1.2,0.2-2.4,0.6-3.5,1.4c-0.5,0.3-1.2,0.8-2,1.6c-0.8,0.7-1.6,1.5-2.3,2.2c-0.7,0.8-1.4,1.5-1.9,2.1 c-0.5,0.6-0.8,1.1-0.8,1.4v0.5c-0.2,0-0.4,0.1-0.6,0.3c-0.2,0.2-0.2,0.4-0.2,0.6c-0.2,0.2-0.5,0.7-1,1.4c-0.4,0.7-0.9,1.3-1.3,1.7 c-1,1.9-1.9,3.6-2.6,5.3c-0.7,1.7-1.3,3.1-1.6,4.2c-0.3,1.1-0.3,1.9-0.1,2.2c0.2,0.2,0.3,0.4,0.4,0.7c0,0.2,0,0.5,0,0.7 c0,0.2,0.2,0.4,0.5,0.7s0.6,0.6,0.8,1c1.8,1.2,4.1,1.1,6.8-0.2c2.7-1.3,6-3.9,9.8-7.7c0.3-0.3,0.8-0.8,1.4-1.6 c0.6-0.7,1-1.2,1.2-1.5c0.1,0.3,0.3,0.8,0.6,1.7c0.3,0.9,0.6,1.5,0.8,1.8c1.3,2.5,2.7,4.2,4.2,5.3c1.5,1.1,3.2,1.5,4.9,1.3 c0.5-0.1,0.9-0.3,1.1-0.6c0.2-0.3,0.3-0.7,0.3-1.3C95.6,49.7,95.4,49.3,95,49z M82.6,36c-1.1,1.6-2.6,3.3-4.4,5.2 c-1.8,1.9-3.7,3.6-5.5,5.1c-1.3,1.1-2.6,1.8-3.7,2.2c-1.1,0.4-1.7,0.4-1.7,0c0.8-2,1.5-3.5,2-4.6c1.4-2.6,2.9-4.9,4.4-7 c1.5-2.1,3-3.8,4.4-5.1c1.4-1.3,2.4-1.9,3.1-1.9c0.4,0,0.9,0.2,1.6,0.7c0.6,0.5,1.2,1.3,1.7,2.5L82.6,36z M104.4,42.6 c0.3-1.5,0.7-2.7,1-3.8c0.3-1.1,0.5-1.7,0.7-1.9c0.3-0.3,0.5-0.7,0.5-1.2c0-0.5,0.2-1.1,0.5-1.9c0.2-0.5,0.5-0.9,0.8-1.2 c0.3-0.3,0.7-0.5,1-0.6c0.7-0.3,1.5-0.6,2.2-0.9c0.7-0.3,1.4-0.7,2.1-1c1.1-0.6,2.2-1.3,3.3-2c1.1-0.7,2.1-1.6,3.2-2.5 c2-1.4,4-3,6-4.9c1.9-1.9,3.5-3.9,4.5-6c1-2,1.6-3.5,2-4.5c0.3-1,0.5-1.9,0.3-2.6c-0.1-0.7-0.5-1.7-1.2-2.9 c-0.4-0.5-1-0.9-1.9-1.3c-0.9-0.4-1.5-0.5-1.8-0.4c-0.7,0.2-1.7,0.4-2.9,0.7s-1.9,0.5-2.2,0.8c-0.6,0.6-1.5,1.4-2.6,2.2 c-1.1,0.9-2.1,1.8-3.2,2.8c-1.1,1-1.9,2.1-2.6,3.2c-1.1,0.9-2,2-2.7,3.2c-0.7,1.2-1.5,2.3-2.4,3.4c-0.3,0.4-0.7,1-1.2,2 c-0.5,0.9-1,1.9-1.4,2.8c-0.5,0.9-0.8,1.6-0.9,2c-0.5,1.1-1.3,2-2.2,2.7c-0.3,0.3-0.5,0.6-0.7,0.9c-0.1,0.3-0.2,0.7-0.1,1.2 c0.1,1.1,0,2-0.2,2.9c-0.1,0.2-0.3,0.7-0.6,1.6c-0.3,0.8-0.6,1.3-0.7,1.6c-0.1,0.2-0.3,1.1-0.7,2.6c-0.4,1.5-1,4.4-1.8,8.5 c-0.2,0.5-0.2,1.3,0,2.5c0.2,1.2,0.6,2.2,1.2,3.1c0.9,1.4,1.9,2.1,3.1,2.2c1.2,0.1,2.2,0.2,3,0.2l2.6-1.6c0.9-0.7,1.8-1.6,2.6-2.5 c0.8-0.9,1.6-1.9,2.2-3.1c0.4-0.6,0.8-1.2,1.1-1.9c0.3-0.7,0.6-1.4,1-2.1c0.3-0.7,0.5-1.5,0.6-2.3c0.1-0.8,0.3-1.5,0.7-2.2 c0-0.6,0-1.2,0.1-1.8c0.1-0.6,0.1-1.2,0.2-1.9c0.1-0.3,0.1-0.5,0.1-0.7c-0.1-0.2-0.2-0.4-0.4-0.6c-0.6-0.6-1.2-1.1-1.8-1.4 c-0.6-0.4-1.3-0.6-2-0.8c-0.4-0.1-0.6-0.1-0.7,0.1c-0.1,0.2-0.3,0.4-0.8,0.6c0.2,0.5,0.4,1,0.4,1.4c0.1,0.4,0.1,0.9,0.2,1.5 c0,0.6,0,1.5,0,2.8c-0.3,0.5-0.5,1.1-0.6,1.8c-0.1,0.7-0.3,1.3-0.5,1.9c-0.4,1-0.8,1.9-1.4,2.8c-0.6,0.9-1.2,1.8-1.8,2.6 c-0.6,0.7-1.1,1.2-1.6,1.6s-1.1,0.7-1.9,0.8c-0.4-0.2-0.6-0.4-0.7-0.7c-0.1-0.3-0.1-0.6-0.2-0.8c-0.1-0.4,0-1.3,0.2-2.5 C103.8,45.4,104.1,44,104.4,42.6z M111.8,22.4c1-1.5,2.2-3,3.4-4.6c1.2-1.5,2.4-2.9,3.4-4.2c1-1.3,1.8-2.1,2.4-2.7 c1.4-1.4,2.5-2.4,3.4-3c0.9-0.6,2.1-1.2,3.6-1.9l0.3,2.2c-0.1,0.7-0.3,1.3-0.7,1.8c-0.3,0.5-0.7,1.1-0.9,1.7 c-0.4,1.2-1.3,2.5-2.8,4c-1.4,1.5-3.2,3.1-5.2,4.7c-2.1,1.6-4.4,3.3-6.9,4.9c-0.3,0.4-0.6,0.7-0.9,0.8c-0.3,0.1-0.8,0.1-1.4,0 C109.9,25.1,110.7,23.9,111.8,22.4z M154.1,49c-0.4-0.3-0.8-0.4-1.2-0.5c-0.7-0.1-1.5-0.4-2.4-1c-0.8-0.5-1.4-1.1-1.6-1.7 c-0.7-1.2-1.2-2.6-1.6-4.2c-0.3-1.6-0.2-3.5,0.5-5.6l1.4-4l-3-2.6c-0.5-0.5-1.1-0.9-1.6-1.4c-0.5-0.5-0.9-0.9-1.3-1.2 c-0.4-0.4-0.6-0.6-0.8-0.8c-0.9-0.7-1.9-1-3.1-0.8c-1.2,0.2-2.4,0.6-3.5,1.4c-0.5,0.3-1.2,0.8-2,1.6c-0.8,0.7-1.6,1.5-2.3,2.2 c-0.7,0.8-1.4,1.5-1.9,2.1c-0.5,0.6-0.8,1.1-0.8,1.4v0.5c-0.2,0-0.4,0.1-0.6,0.3c-0.2,0.2-0.2,0.4-0.2,0.6c-0.2,0.2-0.5,0.7-1,1.4 c-0.4,0.7-0.9,1.3-1.3,1.7c-1,1.9-1.9,3.6-2.6,5.3c-0.7,1.7-1.3,3.1-1.6,4.2c-0.3,1.1-0.3,1.9-0.1,2.2c0.2,0.2,0.3,0.4,0.4,0.7 c0,0.2,0,0.5,0,0.7c0,0.2,0.2,0.4,0.5,0.7s0.6,0.6,0.8,1c1.8,1.2,4.1,1.1,6.8-0.2c2.7-1.3,6-3.9,9.8-7.7c0.3-0.3,0.8-0.8,1.4-1.6 c0.6-0.7,1-1.2,1.2-1.5c0.1,0.3,0.3,0.8,0.6,1.7c0.3,0.9,0.6,1.5,0.8,1.8c1.3,2.5,2.7,4.2,4.2,5.3c1.5,1.1,3.2,1.5,4.9,1.3 c0.5-0.1,0.9-0.3,1.1-0.6c0.2-0.3,0.3-0.7,0.3-1.3C154.7,49.7,154.5,49.3,154.1,49z M141.7,36c-1.1,1.6-2.6,3.3-4.4,5.2 c-1.8,1.9-3.7,3.6-5.5,5.1c-1.3,1.1-2.6,1.8-3.7,2.2c-1.1,0.4-1.7,0.4-1.7,0c0.8-2,1.5-3.5,2-4.6c1.4-2.6,2.9-4.9,4.4-7 c1.5-2.1,3-3.8,4.4-5.1c1.4-1.3,2.4-1.9,3.1-1.9c0.4,0,0.9,0.2,1.6,0.7c0.6,0.5,1.2,1.3,1.7,2.5L141.7,36z M183.3,27.2 c-0.4-0.4-0.8-0.7-1.1-0.7h-1.1c-0.5,0.2-1,0.5-1.4,1c-0.4,0.5-0.9,1.5-1.7,2.8c-0.2,0.5-0.7,1.4-1.5,2.7 c-0.8,1.3-1.5,2.5-2.2,3.5c-0.9,1.5-1.8,2.9-2.7,4.2c-0.9,1.3-1.9,2.6-3,3.7c-1,0.9-2,1.7-3,2.3c-1,0.6-1.9,0.9-2.7,0.9 c-0.2,0-0.2-0.4-0.1-1.3s0.5-2,0.9-3.4c0.4-1.4,0.9-2.8,1.5-4.3c0.6-1.5,1.1-2.9,1.8-4.2c0.6-1.3,1.2-2.2,1.6-2.9 c0.4-0.4,0.7-0.7,0.7-1c0-0.3-0.1-0.6-0.3-1c-0.4-0.9-0.7-1.6-1.1-2c-0.3-0.4-0.7-0.6-1.2-0.6c-0.6,0-1.4,0.6-2.2,1.7 c-0.8,1.1-1.6,2.6-2.4,4.4c-0.8,1.8-1.5,3.7-2,5.8c-0.6,2-1,4-1.2,5.8c-0.2,1.8-0.2,3.3,0.1,4.5c0.3,0.6,0.6,1.3,1,1.9 c0.4,0.6,0.8,1.1,1.2,1.5c0.5,0.4,0.9,0.6,1.2,0.6c0.7,0.1,1.7-0.3,2.9-1c1.2-0.7,2.5-1.8,3.8-3.1c1.2-1.2,2-2,2.5-2.4 c0.5-0.4,0.8-0.4,0.9-0.1c0.1,0.3,0.2,1,0.1,2.1c0,1.3,0.1,2.4,0.2,3.1c0.1,0.7,0.4,1.4,0.8,2.1c0.6,0.7,1.2,1.3,1.8,1.7 c0.6,0.4,1.1,0.5,1.5,0.2c0.2,0,0.5-0.1,1-0.4c0.5-0.2,0.9-0.5,1.2-0.9c0.3-0.4,0.2-0.7-0.3-1c-0.3-0.3-0.6-0.6-0.8-1 c-0.2-0.4-0.4-0.8-0.6-1.1c-0.2-0.4-0.4-1.1-0.4-2.1c-0.1-1-0.1-1.9,0-2.6c0.4-2.3,1.1-4.5,2.1-6.8c1-2.2,2-4.5,3-6.8 c0.2-0.5,0.5-1.2,1-2.3c0.5-1,0.8-1.8,1-2.4c0-0.3,0-0.5-0.1-0.7C184,27.7,183.7,27.5,183.3,27.2z M185.6,12.2 c-0.3-0.1-0.6,0-0.8,0.2l-0.1,0.1c-0.5,0.5-1.1,1-1.6,1.5s-1.1,1-1.7,1.6c-0.7,0.7-1.5,1.3-2.4,1.8c-0.9,0.5-1.8,0.9-2.7,1.3 c-0.9,0.4-1.5,0.4-1.9,0.1c-0.4-0.3-0.8-0.9-1-1.8c0,0.1,0-0.1,0-0.3c0-0.3-0.1-0.5-0.2-0.8c-0.1-0.6-0.3-1.1-0.7-1.5 c-0.3-0.4-0.9-0.7-1.6-1c-0.2-0.1-0.5-0.1-0.8,0c-0.3,0.1-0.5,0.3-0.6,0.5c-0.2,0.3-0.3,0.6-0.3,0.9c0,0.3,0,0.7,0.1,1.2 c0.6,2.3,1.4,4,2.6,5.2c1.1,1.2,2.5,1.7,4.2,1.4c0.6-0.1,1.2-0.2,1.6-0.2c0.4,0,0.8-0.1,1.2-0.4c0.9-0.4,1.8-0.9,2.6-1.4 c0.9-0.5,1.7-1,2.4-1.6c0.9-0.6,1.6-1.4,2.2-2.3c0.6-0.9,0.9-1.5,0.8-1.8l0.1-0.2v-1.2c0-0.4-0.2-0.7-0.6-1.1 C186.1,12.3,186,12.3,185.6,12.2z M237.2,31.7c0.1-1-0.2-1.9-0.7-2.5c-0.5-0.7-1.2-1.2-2-1.7c-0.9-0.5-1.8-0.9-2.8-1.3 c-0.8,0-1.5-0.1-2.2-0.3c-0.7-0.2-1.4-0.3-2.2-0.2c-0.5,0.1-1.2,0.1-2.2,0.1s-1.8,0-2.6,0c-0.8,0-1.2,0-1.2,0 c-0.4,0.3-0.9,0.4-1.4,0.4c-0.5,0-1.1-0.1-1.6-0.4c-0.6,0.3-1,0.6-1.2,0.8c-0.1,0.2-0.2,0.4-0.2,0.7c0,0.3-0.1,0.8-0.4,1.5 c-0.3,0.9-0.5,1.8-0.8,2.8c-0.2,1-0.5,2-0.8,3c-0.3,1.2-0.7,2.5-1.2,3.8c-0.5,1.3-0.9,2.6-1.1,4c-0.3,0.6-0.6,1.5-1,2.8 c-0.4,1.3-0.8,2.6-1.1,3.9c-0.3,1.3-0.4,2.3-0.4,2.8c0.6,0.4,1.1,0.9,1.4,1.4c0.3,0.5,0.8,0.8,1.5,0.9c0.7-0.2,1.3-0.3,1.7-0.5 c0.4-0.2,0.6-0.5,0.6-0.9c0-0.7,0.1-1.4,0.2-1.8c0.1-0.5,0.3-0.9,0.5-1.3c0-0.6,0.2-1.4,0.5-2.4c0.3-1,0.7-2,1.1-3 c0.4-1,0.8-2,1.1-2.9s0.5-1.5,0.6-1.9c0.3-1.3,0.7-2.6,1.2-3.9c0.5-1.3,0.9-2.5,1.1-3.9c0-0.2,0.1-0.3,0.2-0.5 c0.2-0.2,0.3-0.3,0.6-0.4c0.1,0,0.7,0,1.9-0.1c1.1-0.1,2.4-0.2,3.8-0.2c1.4-0.1,2.5-0.1,3.4-0.1c0.2,0.7,0.2,1.8-0.2,3.4 c-0.3,1.6-0.7,3.3-1.2,5c-0.5,1.7-1,3.2-1.5,4.3c-0.1,0.4-0.1,0.7-0.1,1.1c0,0.3-0.2,0.7-0.6,1.1c-0.1,0.7-0.1,1.5-0.2,2.4 c-0.1,0.9-0.1,1.7-0.1,2.4c-0.1,0.6,0.2,1.2,0.7,1.7c0.5,0.5,1.1,0.8,1.8,1c0.7,0.1,1.3-0.1,1.8-0.6c0.4-0.4,0.7-1,0.8-1.8 c0.2-0.8,0.3-1.4,0.2-2c-0.1-0.4,0-0.8,0.3-1.2c0.2-0.3,0.4-0.7,0.4-1.1c0.1-0.9,0.4-1.9,0.8-3.2c0.5-1.3,0.9-2.6,1.4-3.8 c0.5-1.2,0.7-2.1,0.8-2.6c0.4-0.7,0.6-1.5,0.6-2.4C237.1,33.3,237.1,32.5,237.2,31.7z M263.5,30.3c-1.1-0.7-2.6-1-4.2-0.9 c-1.7,0.1-3.6,0.6-5.8,1.6c-0.1,0.1-0.1-0.1,0.2-0.4c0.2-0.3,0.5-0.7,0.7-1.3c0.3-0.6,0.4-1.3,0.4-2.1c0.2-1.2,0.2-2,0-2.5 c-0.2-0.5-0.5-1.1-0.9-1.8c-0.6-0.4-1.1-0.7-1.5-1c-0.4-0.2-0.9-0.1-1.4,0.5c-0.4,0.4-0.6,0.7-0.7,0.8c-0.1,0.1-0.2,0.3-0.2,0.5 c0,0.5-0.1,1.3-0.4,2.4c-0.2,1.1-0.7,2.4-1.3,3.9c-0.6,1.6-1.4,3.5-2.2,5.8c-0.8,2.3-1.6,4.6-2.4,7c-0.8,2.4-1.5,4.5-2.1,6.4 c-0.6,1.9-0.9,3.2-1.1,4c0,0.2-0.1,0.6-0.3,1.3c-0.2,0.6-0.3,1.2-0.3,1.6c-0.6,0.5-1,1.1-1,1.8c0,0.6-0.1,1.3-0.2,2 c-0.2,0.7-0.4,1.3-0.6,1.8c0,0.3-0.1,0.7-0.2,1.3c-0.1,0.6-0.2,1-0.2,1.2c0,0.4-0.1,1.1-0.2,2s-0.4,1.8-0.6,2.7 c-0.3,1.4-0.4,2.3-0.4,2.9c0,0.5,0.1,0.9,0.4,1.2c0.3,0.5,0.6,0.7,0.9,0.7c0.3,0,0.6,0,0.8,0c0.6,0,1.2-0.4,1.7-1.1 c0.5-0.7,0.7-1.8,0.8-3.1c0-0.3,0-0.7,0.1-1.3c0.1-0.6,0.2-0.9,0.4-1c0.2,0,0.4-0.3,0.6-0.9c0.2-0.6,0.3-1.2,0.3-1.9 c0.2-0.4,0.4-1.1,0.6-1.9c0.2-0.9,0.2-1.5,0.2-1.9c0.3-0.4,0.4-1.3,0.5-2.5c-0.2-0.3-0.2-0.6,0-0.9c0.3,0,0.6-0.4,0.9-1.2 c0.3-0.8,0.6-1.6,0.8-2.5s0.4-1.5,0.4-1.8c0-0.2,0.1-0.3,0.2-0.6c0.1-0.2,0.3-0.4,0.4-0.5c0.5,0.4,1.3,0.6,2.4,0.6 c0.9,0,1.8-0.1,3-0.4c1.1-0.3,2.1-0.6,3-1c0.9-0.3,1.3-0.6,1.3-0.7c0-0.3,0.1-0.4,0.4-0.5c0.4,0.2,1.1,0,2-0.4 c0.9-0.4,1.8-0.9,2.8-1.6c0.9-0.7,1.6-1.3,2-1.8c0.2-0.4,0.4-0.8,0.6-1.2c0.2-0.3,0.4-0.5,0.6-0.5c0.3-0.3,0.7-0.8,1.1-1.6 c0.4-0.7,0.7-1.5,1-2.4c0.3-0.9,0.4-1.6,0.4-2.3c0-1.5-0.3-2.9-0.9-4.1C265.5,31.9,264.7,31,263.5,30.3z M261.5,39.3 c-0.8,1.6-1.9,3-3.2,4.2c-0.7,0.6-1.7,1.2-3.2,1.7c-1.4,0.6-2.8,1-4.1,1.4c-1.3,0.4-2.2,0.6-2.6,0.6c-0.4,0-0.5-0.3-0.5-1 c0.1-0.7,0.3-1.5,0.6-2.6c0.3-1,0.8-2,1.3-3c0.5-1,1.1-1.9,1.8-2.6c1.2-1.1,2.4-2.1,3.8-2.8c1.3-0.7,2.6-1.2,3.7-1.3 c1.1-0.1,1.9,0.2,2.3,0.9C262.2,36.2,262.3,37.7,261.5,39.3z M294.6,29c-0.6-0.7-1.5-1.4-2.7-1.9c-0.8-0.9-1.4-1.3-1.9-1.3 c-0.5,0-1.3,0.1-2.4,0.4c-1.2,0.3-2.3,0.7-3.3,1.2c-1,0.5-2.2,1.4-3.5,2.5c-0.6,0.5-1.3,1.2-2.1,2.1c-0.8,0.9-1.5,1.8-2.1,2.6 s-1.1,1.6-1.4,2.1c-0.8,1.3-1.5,2.6-2,4.1c-0.5,1.4-0.7,2.4-0.6,2.8c0.1,0.6,0,0.9-0.3,0.9c-0.1,0.2-0.2,0.4-0.3,0.4 c-0.1,0.1,0,0.3,0.2,0.5c0.1,0.8,0,1.4-0.2,1.8c-0.2,0.9,0,1.9,0.4,2.8c0.4,1,1.1,2,2.2,3.1c0.6,0.5,1.1,0.9,1.5,1.1 c0.4,0.3,0.9,0.4,1.6,0.4c1.2-0.1,2.3-0.3,3.2-0.7c0.9-0.3,1.9-0.9,3-1.6c1.5-0.9,2.9-1.8,4-2.8c1.1-0.9,2.3-2.4,3.7-4.3 c2.1-3,3.4-5.6,3.8-7.6c0.4-2.1,0.5-3.9,0.4-5.5C295.5,30.8,295.1,29.7,294.6,29z M290.9,35.1c-0.1,0.9-0.2,1.6-0.4,2.2 c-0.7,2-1.4,3.6-2.2,4.9c-0.8,1.3-1.8,2.6-3.1,4.1c-2.3,2.5-4.2,3.9-5.7,4.2c-1.5,0.3-2.5-0.1-3-1.2c-0.5-1.1-0.3-2.7,0.5-4.6 c1.2-2.6,2.4-4.9,3.6-7c1.2-2.1,2.7-3.8,4.3-5.2c1.1-0.9,2.1-1.4,3-1.6c0.9-0.1,1.7,0,2.3,0.4c0.3,0.1,0.5,0.5,0.6,1.3 C291,33.4,291,34.2,290.9,35.1z M323,43.6c-0.4-0.2-0.8-0.4-1.2-0.5c-0.6,0-1.1,0.1-1.4,0.2c-0.3,0.1-0.7,0.5-1.1,1.1 c-0.4,0.2-0.8,0.5-1.2,0.9c-0.4,0.4-0.7,0.6-1,0.8c-0.8,0.6-1.7,1.2-2.8,2c-1.1,0.7-2,1.3-2.9,1.7c-0.6,0.3-1.5,0.5-2.8,0.7 c-1.3,0.1-2.3,0.1-3-0.1c-0.2-0.1-0.3-0.5-0.4-1.4c-0.1-0.9,0-2,0.4-3.2c0.8-3.1,1.7-5.8,2.7-7.9c1-2.1,2.1-3.8,3.3-5.2 c1.2-1.3,2.5-2.4,3.8-3.1c1.1-0.4,1.8-0.4,2.2,0c0.4,0.5,0.4,1.4,0.1,2.9c-0.2,1-0.4,1.8-0.6,2.5c-0.2,0.6-0.3,1.1-0.3,1.4 c0.2,0.4,0.4,0.8,0.7,1.1c0.3,0.3,0.6,0.5,0.9,0.5c0.3,0.1,0.4-0.1,0.4-0.3c0-0.3,0.1-0.4,0.3-0.4c0.2,0,0.4,0,0.6,0 c0.4,0,0.9-0.4,1.4-1.1c0.5-0.7,0.9-1.6,1.1-2.6c0.3-0.6,0.5-1.3,0.4-2.2c-0.1-0.9-0.2-1.7-0.4-2.4c-0.2-0.7-0.5-1-0.8-1l-0.4-0.4 c0-0.6-0.5-1.2-1.5-1.8c-1-0.6-1.9-0.9-2.8-1.2c-0.4,0-1,0-1.6,0.1c-0.7,0.1-1.4,0.3-2.1,0.6c-0.9,0.4-1.8,1.1-2.9,2.2 c-1.1,1.1-2.1,2.2-3.2,3.5c-1.2,1.5-2.4,3.4-3.4,5.5c-1,2.1-1.8,4.3-2.4,6.4c-0.5,2.1-0.7,4-0.6,5.6c0,1.7,0.4,3.1,1.2,4.2 c0.8,1.1,1.8,1.9,3.1,2.3c1.3,0.5,2.7,0.5,4.2,0.3c0.7-0.2,1.6-0.5,2.6-0.9c1-0.4,1.9-0.9,2.6-1.3c0.8-0.4,1.2-0.7,1.2-0.8 c0-0.3,0.3-0.5,0.8-0.5c0.3,0,0.9-0.3,1.6-0.8c0.8-0.6,1.6-1.2,2.4-2c0.9-0.8,1.6-1.5,2.1-2.2c0.6-0.7,0.8-1.1,0.7-1.3 c0.1-0.3,0.2-0.4,0.4-0.4c0.3-0.2,0.4-0.3,0.3-0.6C323.6,44.1,323.4,43.9,323,43.6z M365.4,49c-0.2-0.6-0.4-1.3-0.5-2 c-0.1-0.7-0.1-1.7,0.1-3.1c0.2-2.3,0.1-4.3-0.3-5.8c-0.4-1.5-1.3-2.7-2.7-3.4c-0.7-0.8-1.6-1.1-2.6-1c-1,0.1-1.9,0.6-3,1.3 c-1.5,1.3-3.1,3.1-4.9,5.4c0.3-2,0.4-3.4,0.4-4.2c-0.2-1.9-0.7-3.4-1.4-4.4c-0.7-1-1.7-1.6-2.8-1.8c-0.6,0-1.4,0.1-2.4,0.4 c-1,0.3-2.1,1.1-3.2,2.3c-1.1,1.2-1.9,2.2-2.6,3c-0.7,0.8-1.5,1.9-2.4,3.1c-0.4,0.5-1,1.3-1.8,2.2c-0.2,0.2-0.4,0.5-0.6,0.7 c0.1-0.3,0.2-0.6,0.3-0.9c0.3-1.2,0.8-2.5,1.2-4c0.5-1.4,1-2.7,1.4-3.8c0.6-1.7,0.9-3,0.9-3.9s-0.3-1.6-0.9-2.3 c-0.2-0.5-0.5-0.9-0.9-1.1c-0.4-0.2-0.8-0.2-1.2-0.2c-0.4,0.1-0.7,0.3-1,0.5c-0.1,0.1-0.3,0.5-0.5,1.2c-0.2,0.7-0.4,1.5-0.6,2.3 c-0.2,0.9-0.3,1.6-0.4,2.2c0,0.2-0.2,0.8-0.6,1.8c-0.4,1-0.8,1.9-1.4,2.9c-0.4,1.4-0.7,2.9-1.1,4.5c-0.4,1.6-0.7,3-0.9,4.3 c-0.2,1.3-0.3,2.2-0.3,2.7c0,1,0.2,1.7,0.7,2.4c0.5,0.6,1,1.1,1.6,1.5c0.7,0.4,1.3,0.5,1.5,0.4c0.3-0.1,0.8-0.7,1.5-1.9 c0.4-0.4,0.9-0.9,1.5-1.7c0.6-0.7,1.2-1.6,1.9-2.6c0.7-1,1.4-2,2-3c1-1.5,1.9-2.9,2.8-4.1c0.9-1.2,1.7-2,2.3-2.4 c0.5-0.4,1.1-0.6,1.6-0.8c0.5-0.1,0.9,0,1.1,0.4c-0.1,0.6-0.3,1.7-0.7,3.2c-0.4,1.5-0.8,3-1.2,4.5c-0.4,1.5-0.7,2.8-1,3.7 c-0.2,0.9-0.2,1.6,0.1,2.3c0.3,0.7,1,1.2,2.2,1.6c0.6,0.4,1,0.4,1.2,0.2s0.9-1.2,1.9-2.8c1.1-1.8,2.3-3.6,3.6-5.3 c1.3-1.7,2.5-3.1,3.6-4.1c1.1-1,2-1.4,2.6-1c0.2,0.2,0.4,0.6,0.4,1.4c0.1,0.7,0.1,1.7,0.1,2.9v5c0,0.9,0.3,1.6,0.8,2.1 c0.5,0.5,1.1,0.9,1.8,1.1c0.7,0.2,1.3,0.3,1.8,0.3c0.4,0,0.7-0.3,1-1C365.9,49.7,365.8,49.2,365.4,49z M393.5,29 c-0.6-0.7-1.5-1.4-2.7-1.9c-0.8-0.9-1.4-1.3-1.9-1.3c-0.5,0-1.3,0.1-2.4,0.4c-1.2,0.3-2.3,0.7-3.3,1.2c-1,0.5-2.2,1.4-3.5,2.5 c-0.6,0.5-1.3,1.2-2.1,2.1c-0.8,0.9-1.5,1.8-2.1,2.6c-0.6,0.9-1.1,1.6-1.4,2.1c-0.8,1.3-1.5,2.6-2,4.1c-0.5,1.4-0.7,2.4-0.6,2.8 c0.1,0.6,0,0.9-0.3,0.9c-0.1,0.2-0.2,0.4-0.3,0.4c-0.1,0.1,0,0.3,0.2,0.5c0.1,0.8,0,1.4-0.2,1.8c-0.2,0.9,0,1.9,0.4,2.8 c0.4,1,1.1,2,2.2,3.1c0.6,0.5,1.1,0.9,1.5,1.1c0.4,0.3,0.9,0.4,1.6,0.4c1.2-0.1,2.3-0.3,3.2-0.7c0.9-0.3,1.9-0.9,3-1.6 c1.5-0.9,2.9-1.8,4-2.8c1.1-0.9,2.3-2.4,3.7-4.3c2.1-3,3.4-5.6,3.8-7.6c0.4-2.1,0.5-3.9,0.4-5.5C394.4,30.8,394.1,29.7,393.5,29z M389.9,35.1c-0.1,0.9-0.2,1.6-0.4,2.2c-0.7,2-1.4,3.6-2.2,4.9c-0.8,1.3-1.8,2.6-3.1,4.1c-2.3,2.5-4.2,3.9-5.7,4.2 c-1.5,0.3-2.5-0.1-3-1.2c-0.5-1.1-0.3-2.7,0.5-4.6c1.2-2.6,2.4-4.9,3.6-7c1.2-2.1,2.7-3.8,4.3-5.2c1.1-0.9,2.1-1.4,3-1.6 c0.9-0.1,1.7,0,2.3,0.4c0.3,0.1,0.5,0.5,0.6,1.3C389.9,33.4,389.9,34.2,389.9,35.1z M445.2,31.7c0.1-1-0.2-1.9-0.7-2.5 c-0.5-0.7-1.2-1.2-2-1.7c-0.9-0.5-1.8-0.9-2.8-1.3c-0.8,0-1.5-0.1-2.2-0.3c-0.7-0.2-1.4-0.3-2.2-0.2c-0.5,0.1-1.2,0.1-2.2,0.1 s-1.8,0-2.6,0c-0.8,0-1.2,0-1.2,0c-0.4,0.3-0.9,0.4-1.4,0.4c-0.5,0-1.1-0.1-1.6-0.4c-0.6,0.3-1,0.6-1.2,0.8 c-0.1,0.2-0.2,0.4-0.2,0.7c0,0.3-0.1,0.8-0.4,1.5c-0.3,0.9-0.5,1.8-0.8,2.8c-0.2,1-0.5,2-0.8,3c-0.3,1.2-0.7,2.5-1.2,3.8 c-0.5,1.3-0.9,2.6-1.1,4c-0.3,0.6-0.6,1.5-1,2.8c-0.4,1.3-0.8,2.6-1.1,3.9c-0.3,1.3-0.4,2.3-0.4,2.8c0.6,0.4,1.1,0.9,1.4,1.4 c0.3,0.5,0.8,0.8,1.5,0.9c0.7-0.2,1.3-0.3,1.7-0.5c0.4-0.2,0.6-0.5,0.6-0.9c0-0.7,0.1-1.4,0.2-1.8c0.1-0.5,0.3-0.9,0.5-1.3 c0-0.6,0.2-1.4,0.5-2.4c0.3-1,0.7-2,1.1-3c0.4-1,0.8-2,1.1-2.9s0.5-1.5,0.6-1.9c0.3-1.3,0.7-2.6,1.2-3.9c0.5-1.3,0.9-2.5,1.1-3.9 c0-0.2,0.1-0.3,0.2-0.5c0.2-0.2,0.3-0.3,0.6-0.4c0.1,0,0.7,0,1.9-0.1c1.1-0.1,2.4-0.2,3.8-0.2c1.4-0.1,2.5-0.1,3.4-0.1 c0.2,0.7,0.2,1.8-0.2,3.4c-0.3,1.6-0.7,3.3-1.2,5c-0.5,1.7-1,3.2-1.5,4.3c-0.1,0.4-0.1,0.7-0.1,1.1c0,0.3-0.2,0.7-0.6,1.1 c-0.1,0.7-0.1,1.5-0.2,2.4c-0.1,0.9-0.1,1.7-0.1,2.4c-0.1,0.6,0.2,1.2,0.7,1.7c0.5,0.5,1.1,0.8,1.8,1c0.7,0.1,1.3-0.1,1.8-0.6 c0.4-0.4,0.7-1,0.8-1.8c0.2-0.8,0.3-1.4,0.2-2c-0.1-0.4,0-0.8,0.3-1.2c0.2-0.3,0.4-0.7,0.4-1.1c0.1-0.9,0.4-1.9,0.8-3.2 c0.5-1.3,0.9-2.6,1.4-3.8s0.7-2.1,0.8-2.6c0.4-0.7,0.6-1.5,0.6-2.4C445.1,33.3,445.1,32.5,445.2,31.7z M471.5,30.3 c-1.1-0.7-2.6-1-4.2-0.9c-1.7,0.1-3.6,0.6-5.8,1.6c-0.1,0.1-0.1-0.1,0.2-0.4c0.2-0.3,0.5-0.7,0.7-1.3c0.3-0.6,0.4-1.3,0.4-2.1 c0.2-1.2,0.2-2,0-2.5c-0.2-0.5-0.5-1.1-0.9-1.8c-0.6-0.4-1.1-0.7-1.5-1c-0.4-0.2-0.9-0.1-1.4,0.5c-0.4,0.4-0.6,0.7-0.7,0.8 c-0.1,0.1-0.2,0.3-0.2,0.5c0,0.5-0.1,1.3-0.4,2.4c-0.2,1.1-0.7,2.4-1.3,3.9c-0.6,1.6-1.4,3.5-2.2,5.8c-0.8,2.3-1.6,4.6-2.4,7 c-0.8,2.4-1.5,4.5-2.1,6.4c-0.6,1.9-0.9,3.2-1.1,4c0,0.2-0.1,0.6-0.3,1.3c-0.2,0.6-0.3,1.2-0.3,1.6c-0.6,0.5-1,1.1-1,1.8 c0,0.6-0.1,1.3-0.2,2c-0.2,0.7-0.4,1.3-0.6,1.8c0,0.3-0.1,0.7-0.2,1.3c-0.1,0.6-0.2,1-0.2,1.2c0,0.4-0.1,1.1-0.2,2 s-0.4,1.8-0.6,2.7c-0.3,1.4-0.4,2.3-0.4,2.9c0,0.5,0.1,0.9,0.4,1.2c0.3,0.5,0.6,0.7,0.9,0.7c0.3,0,0.6,0,0.8,0 c0.6,0,1.2-0.4,1.7-1.1c0.5-0.7,0.7-1.8,0.8-3.1c0-0.3,0-0.7,0.1-1.3c0.1-0.6,0.2-0.9,0.4-1c0.2,0,0.4-0.3,0.6-0.9 c0.2-0.6,0.3-1.2,0.3-1.9c0.2-0.4,0.4-1.1,0.6-1.9c0.2-0.9,0.2-1.5,0.2-1.9c0.3-0.4,0.4-1.3,0.5-2.5c-0.2-0.3-0.2-0.6,0-0.9 c0.3,0,0.6-0.4,0.9-1.2c0.3-0.8,0.6-1.6,0.8-2.5c0.2-0.9,0.4-1.5,0.4-1.8c0-0.2,0.1-0.3,0.2-0.6c0.1-0.2,0.3-0.4,0.4-0.5 c0.5,0.4,1.3,0.6,2.4,0.6c0.9,0,1.8-0.1,3-0.4c1.1-0.3,2.1-0.6,3-1c0.9-0.3,1.3-0.6,1.3-0.7c0-0.3,0.1-0.4,0.4-0.5 c0.4,0.2,1.1,0,2-0.4c0.9-0.4,1.8-0.9,2.8-1.6c0.9-0.7,1.6-1.3,2-1.8c0.2-0.4,0.4-0.8,0.6-1.2c0.2-0.3,0.4-0.5,0.6-0.5 c0.3-0.3,0.7-0.8,1.1-1.6c0.4-0.7,0.7-1.5,1-2.4c0.3-0.9,0.4-1.6,0.4-2.3c0-1.5-0.3-2.9-0.9-4.1C473.5,31.9,472.7,31,471.5,30.3z M469.5,39.3c-0.8,1.6-1.9,3-3.2,4.2c-0.7,0.6-1.7,1.2-3.2,1.7c-1.4,0.6-2.8,1-4.1,1.4c-1.3,0.4-2.2,0.6-2.6,0.6 c-0.4,0-0.5-0.3-0.5-1c0.1-0.7,0.3-1.5,0.6-2.6c0.3-1,0.8-2,1.3-3c0.5-1,1.1-1.9,1.8-2.6c1.2-1.1,2.4-2.1,3.8-2.8 c1.3-0.7,2.6-1.2,3.7-1.3c1.1-0.1,1.9,0.2,2.3,0.9C470.2,36.2,470.3,37.7,469.5,39.3z M503.3,27.9c-0.1-0.3-0.2-0.4-0.4-0.4 l-1.3,0.1c-0.1-0.3-0.3-0.3-0.7,0c-0.4,0.2-0.7,0.5-0.9,0.8c-0.6,0.4-1.1,0.8-1.2,1.3c-0.2,0.5-0.2,1.1-0.1,1.7 c-0.1,1-0.2,1.9-0.4,2.8c-0.2,0.8-0.5,1.8-1,2.8c-1.4,3.5-2.9,6.1-4.4,7.8c-1.5,1.7-2.9,2.8-4.1,3.2c-1.2,0.4-2,0.5-2.5,0.2 c-0.7-0.3-1.1-1-1-2.3c0.1-1.3,0.5-2.8,1.1-4.6c0.6-1.8,1.3-3.6,2-5.4c1-1.9,1.6-3.4,2-4.7c0.4-1.3,0.4-2.2,0.1-2.7 c-0.1-0.7-0.4-1.3-1-1.6c-0.5-0.3-1.2-0.3-2,0c-0.2,0.2-0.5,0.8-1.1,1.9c-0.6,1-1.4,2.7-2.6,4.8c-1.3,3-2.2,5.4-2.6,7.2 c-0.4,1.8-0.7,3.6-0.8,5.5c-0.3,1.5-0.3,2.7,0,3.5c0.3,0.9,0.9,1.6,1.8,2.3c1,1.3,2.1,1.9,3.2,1.8c1.1-0.1,2.6-0.7,4.4-1.8 c0.7-0.4,1.5-0.9,2.2-1.5c0.7-0.6,1.2-1,1.4-1.2c0.3-0.3,0.7-0.6,1-1c0.3-0.4,0.6-0.8,0.8-1.2c0.1,0.3,0.1,0.9,0,1.6 c0,0.7,0,1.3,0.1,1.8c0.3,1.2,0.7,2.3,1.3,3.2c0.5,0.9,1.1,1.7,1.6,2.2c0.5,0.4,1.1,0.6,1.8,0.6c0.6,0,1.2-0.1,1.7-0.4 c0.5-0.3,0.8-0.7,0.9-1.2c0.1-0.6,0-1.2,0-1.7s-0.4-0.9-1-1.3c-0.8-0.7-1.4-1.5-1.8-2.3c-0.4-0.9-0.6-1.8-0.6-2.7 c0.1-1.1,0.3-2.2,0.6-3.3c0.3-1.1,1-2.8,2-5c1.2-2.9,2-5.1,2.2-6.7c0.3-1.6,0.1-2.6-0.5-3.1C503.5,28.5,503.4,28.2,503.3,27.9z M534.6,26c-0.3-0.2-0.9-0.3-1.7-0.4c-0.6,0.2-1.1,0.5-1.4,0.9c-0.3,0.4-0.7,0.8-1,1.3c-0.1,0.1-0.4,0.5-1.2,1.2 c-0.7,0.7-1.5,1.5-2.5,2.4c-0.9,0.9-1.8,1.7-2.6,2.5c-0.8,0.8-1.4,1.3-1.6,1.6c-0.7,0.7-1.2,1.3-1.6,1.6c-0.4,0.3-0.8,0.6-1.2,0.7 c-0.4,0.1-1.1,0.3-2,0.5c0.5-1.6,1-2.9,1.4-3.8c0.4-0.9,0.9-1.7,1.3-2.5c0.5-0.8,1-1.8,1.7-3c0.3-0.6,0.4-1.1,0.4-1.7 c-0.1-0.5-0.3-1-0.8-1.5c-0.1-0.2-0.3-0.3-0.5-0.4c-0.2-0.1-0.4-0.1-0.5-0.2c-0.4-0.6-0.8-0.9-1.4-0.9c-0.6,0-1.1,0.2-1.5,0.6 c-0.4,0.3-0.7,0.7-0.8,1.1c-0.3,1.5-0.9,2.9-1.7,4.1c-0.8,1.3-1.4,2.4-1.7,3.5c-0.1,0.3-0.3,1.1-0.8,2.4c-0.5,1.3-1,2.8-1.6,4.4 c-0.6,1.6-1.1,3.1-1.6,4.5c-0.5,1.4-0.8,2.3-0.9,2.8c-0.2,0.5-0.3,1.1-0.4,1.7c-0.1,0.6,0.1,1.2,0.4,1.8c0.3,0.4,0.7,0.7,1.2,1.1 c0.5,0.4,1,0.6,1.6,0.6c0.5-0.4,1-0.8,1.3-1.3c0.3-0.5,0.6-1,0.8-1.6c0.3-0.9,0.5-1.8,0.8-2.8c0.2-0.9,0.6-1.8,1.2-2.5 c0-1.1,0.1-1.9,0.4-2.4c0.3-0.5,0.6-1.2,0.8-2c0.3,0.5,0.8,1.3,1.4,2.4c0.6,1,1.3,2.1,2,3.3c0.7,1.2,1.4,2.2,2,3.2 c0.6,1,1.1,1.6,1.4,1.9c0.6,0.7,1.2,1.3,1.8,1.9c0.6,0.6,1.4,1,2.2,1.2c0.9,0.3,1.5,0.5,1.9,0.4c0.3,0,0.7-0.2,1-0.6 c0.3-0.3,0.8-0.8,1.6-1.2c-0.1-0.3-0.1-0.7-0.1-1c0-0.3-0.1-0.7-0.2-1c-0.1-0.3-0.4-0.5-0.8-0.8c-1.3,0-2.4-0.2-3.2-0.7 c-0.9-0.5-1.4-1.3-1.5-2.7c-0.4-0.7-0.9-1.7-1.4-2.8c-0.6-1.1-1.3-2.3-2-3.5c1.6-1.1,3.2-2.3,4.8-3.6c1.6-1.3,3.2-2.5,4.6-3.7 c1.4-1.2,2.6-2.1,3.6-2.9c0.5-0.4,0.8-1,0.9-1.8c0.1-0.8-0.1-1.3-0.3-1.5C535.5,26.7,534.9,26.2,534.6,26z M562.4,27.9 c-0.1-0.3-0.2-0.4-0.4-0.4l-1.3,0.1c-0.1-0.3-0.3-0.3-0.7,0c-0.4,0.2-0.7,0.5-0.9,0.8c-0.6,0.4-1.1,0.8-1.2,1.3 c-0.2,0.5-0.2,1.1-0.1,1.7c-0.1,1-0.2,1.9-0.4,2.8c-0.2,0.8-0.5,1.8-1,2.8c-1.4,3.5-2.9,6.1-4.4,7.8c-1.5,1.7-2.9,2.8-4.1,3.2 c-1.2,0.4-2,0.5-2.5,0.2c-0.7-0.3-1.1-1-1-2.3c0.1-1.3,0.5-2.8,1.1-4.6c0.6-1.8,1.3-3.6,2-5.4c1-1.9,1.6-3.4,2-4.7 c0.4-1.3,0.4-2.2,0.1-2.7c-0.1-0.7-0.4-1.3-1-1.6c-0.5-0.3-1.2-0.3-2,0c-0.2,0.2-0.5,0.8-1.1,1.9c-0.6,1-1.4,2.7-2.6,4.8 c-1.3,3-2.2,5.4-2.6,7.2c-0.4,1.8-0.7,3.6-0.8,5.5c-0.3,1.5-0.3,2.7,0,3.5c0.3,0.9,0.9,1.6,1.8,2.3c1,1.3,2.1,1.9,3.2,1.8 c1.1-0.1,2.6-0.7,4.4-1.8c0.7-0.4,1.5-0.9,2.2-1.5c0.7-0.6,1.2-1,1.4-1.2c0.3-0.3,0.7-0.6,1-1c0.3-0.4,0.6-0.8,0.8-1.2 c0.1,0.3,0.1,0.9,0,1.6c0,0.7,0,1.3,0.1,1.8c0.3,1.2,0.7,2.3,1.3,3.2c0.5,0.9,1.1,1.7,1.6,2.2c0.5,0.4,1.1,0.6,1.8,0.6 s1.2-0.1,1.7-0.4c0.5-0.3,0.8-0.7,0.9-1.2c0.1-0.6,0-1.2,0-1.7s-0.4-0.9-1-1.3c-0.8-0.7-1.4-1.5-1.8-2.3c-0.4-0.9-0.6-1.8-0.6-2.7 c0.1-1.1,0.3-2.2,0.6-3.3c0.3-1.1,1-2.8,2-5c1.2-2.9,2-5.1,2.2-6.7c0.3-1.6,0.1-2.6-0.5-3.1C562.6,28.5,562.5,28.2,562.4,27.9z M574.2,31.6c0,0,0-0.1,0-0.1C574.3,31.5,574.3,31.5,574.2,31.6z M594.1,27.1c-0.8-0.1-1.6,0-2.3,0.4c-0.2,0.4-0.3,0.9-0.5,1.4 c-0.2,0.6-0.3,0.9-0.4,1c-0.9,1.5-1.5,2.9-2,4.4c-0.5,1.4-1,2.9-1.6,4.5c-0.1-0.1-0.5-0.1-1.5-0.1c-0.9,0-1.9,0-2.9,0.1 c-1,0.1-1.6,0.1-1.9,0.2c-0.5,0-1.3,0.1-2.4,0.4c-1,0.2-1.8,0.2-2.4-0.1v-0.6l4.2-10.2c0.1-0.2,0.2-0.4,0.2-0.6 c0-0.3,0-0.6,0.1-0.9c-0.1-0.6-0.4-1.2-1-1.6c-0.6-0.5-1.3-0.7-2.2-0.6c-0.3,0-0.6,0.1-0.8,0.2c-0.2,0.1-0.4,0.4-0.5,0.7 c0,0.1-0.1,0.5-0.4,1.4c-0.3,0.9-0.6,1.8-0.9,2.7c-0.3,0.9-0.5,1.4-0.7,1.8c0,0.1-0.1,0.2-0.1,0.3c-0.2,0.4-0.4,1-0.6,1.7 c-0.3,0.7-0.6,1.6-1,2.8c-0.5,1.1-1,2.2-1.4,3.4c-0.4,1.2-0.8,2.4-1.2,3.6c-0.2,0.6-0.4,1.3-0.6,2c-0.2,0.7-0.3,1.4-0.6,2.1 l-1.3,6.2c0.3,0.3,0.5,0.5,0.8,0.7c0.2,0.2,0.5,0.4,0.8,0.6c1.1,0.6,2,0.8,2.5,0.6c0.6-0.3,0.9-1,0.9-2.2c0.1-0.7,0.2-1.5,0.3-2.2 c0.2-0.7,0.3-1.4,0.3-2.1c0-0.9,0.2-1.9,0.6-2.9c0.4-1,0.7-1.8,0.7-2.4l0.5-0.2c0.3,0.1,0.8,0.2,1.6,0.3c0.7,0.1,1.4,0.1,2.2,0.1 c0.7,0,1.2-0.1,1.5-0.2c-0.1,0.1,0.2,0,0.7-0.1c0.5-0.1,1.1-0.2,1.9-0.3c0.7-0.1,1.5-0.2,2.1-0.3c0.7-0.1,1.1-0.1,1.3,0 c-0.2,1.3-0.4,2.4-0.6,3.1c-0.2,0.7-0.4,1.5-0.7,2.3c-0.2,0.6-0.3,1.2-0.4,1.6c-0.1,0.5-0.1,0.8,0,1.2c0.3,0.3,0.7,0.5,1,0.6 c0.3,0.1,1.1,0.4,2.1,0.8c0.1-0.1,0.3-0.2,0.6-0.4c0.3-0.2,0.5-0.6,0.6-1c0.2-0.6,0.5-1.6,0.8-2.8c0.3-1.3,0.6-2.4,0.8-3.5 c0.2-1.1,0.4-1.7,0.4-1.9c0.1-0.2,0.2-0.4,0.4-0.6c0.2-0.2,0.4-0.2,0.6-0.2c0.4-0.1,0.8-0.2,1-0.4c0.3-0.2,0.7-0.4,1.4-0.5 c0.1-0.6,0-1.2-0.2-1.7c-0.2-0.5-0.7-0.8-1.6-0.8v-0.2c0.1-0.2,0.4-0.7,0.8-1.7c0.4-1,0.9-2,1.4-3.2c0.5-1.1,0.9-2,1.3-2.8 c0.3-0.7,0.5-0.9,0.4-0.6c0.3-0.9,0.3-1.6-0.2-2.1C595.5,27.6,594.9,27.3,594.1,27.1z M621.7,27.4c-0.4-0.5-0.9-1-1.5-1.3 c-0.6-0.3-1.5-0.6-2.8-0.7c-1.2-0.1-2-0.2-2.6-0.2c-0.6,0-1.2,0.2-2,0.8c-1.7,0.6-3.3,1.8-5,3.4c-1.7,1.7-3.1,3.5-4.3,5.6 c-1.2,2.1-1.8,4.2-2,6.3c-0.2,2.5-0.2,4.4,0.1,6c0.3,1.5,0.9,2.9,1.8,4c0.9,1.3,2.1,2.2,3.4,2.8c1.4,0.6,2.8,0.8,4.3,0.7 c1.5-0.2,2.8-0.7,3.9-1.7c1.2-0.7,2.2-1.6,3-2.4c0.9-0.9,1.4-1.6,1.7-2.3c0.3-0.6,0.2-1-0.4-1c-0.2-0.1-0.4-0.3-0.6-0.5 c-0.2-0.2-0.5-0.4-0.7-0.4c-0.3,0-0.5,0.1-0.7,0.3c-0.2,0.2-0.5,0.5-0.9,0.8l-1,1c-0.1,0.1-0.3,0.2-0.5,0.3 c-0.2,0.1-0.7,0.4-1.6,0.9c-0.9,0.5-1.7,0.8-2.3,0.7c-0.6-0.1-1.5-0.2-2.5-0.4c-0.9-0.2-1.6-0.7-2.2-1.6c-0.5-0.9-0.7-2.4-0.5-4.4 c0.3-2.1,0.6-3.5,0.9-4c0.3-0.6,1-0.6,2-0.2c0.9,0.6,2.1,1,3.4,1c1.4,0.1,2.7-0.1,3.8-0.5c2.2-1.1,4-2.4,5.3-4.1s2.1-3.1,2.4-4.3 c0-0.7-0.1-1.5-0.4-2.3C623,29,622.5,28.2,621.7,27.4z M618.4,33.4c-0.5,0.6-1,1.2-1.6,1.7c-0.6,0.5-1.3,0.9-1.8,1.2 c-0.6,0.3-1.3,0.4-2.3,0.5c-0.9,0.1-1.8,0-2.5-0.1c-0.7-0.1-1.2-0.3-1.4-0.6c-0.1-0.1,0-0.5,0.4-1c0.4-0.6,0.9-1.3,1.6-2 c0.7-0.7,1.4-1.4,2.1-2c0.7-0.6,1.4-1,2-1.2c1.4-0.4,2.4-0.3,3.1,0.2c0.7,0.5,1,1.1,1,1.9C619.1,32.2,618.8,32.7,618.4,33.4z M661.6,28c-0.3-0.2-0.9-0.6-1.8-1c-0.3-0.2-0.5-0.2-0.8-0.2c-0.3,0-0.5,0.2-0.6,0.4c-0.2,0.2-0.7,0.7-1.5,1.6 c-0.8,0.8-1.8,1.8-3,3c-1.1,1.1-2.3,2.3-3.5,3.6c-1.2,1.3-2.2,2.4-3,3.5c-0.7,0.8-1.3,1.1-1.6,0.8c-0.3-0.3-0.5-0.8-0.5-1.5 c0.2-0.6,0.2-1.2,0-1.9c-0.2-0.7-0.2-1.4-0.1-2c-0.4-1.2-0.6-2.1-0.6-2.7c0-0.6,0-1.1,0-1.7c-0.6-0.4-1.1-0.8-1.7-1.2 c-0.5-0.4-1-0.8-1.4-1.2c-0.7-0.1-1.3-0.1-1.7,0.2c-0.4,0.2-0.6,0.6-0.7,1c-0.2,0.3-0.3,0.6-0.4,0.9c-0.1,0.3-0.3,0.5-0.6,0.7 c-0.2,0.1-0.6,0.5-1.1,1.1c-0.5,0.6-1,1.3-1.5,1.9c-0.5,0.6-0.7,1-0.8,1.2c-0.4,0.5-0.8,1-1.2,1.5c-0.4,0.5-0.7,1-1,1.5 c-0.1,0.2-0.2,0.5-0.6,0.9c-0.3,0.5-0.8,1.1-1.4,1.9c-0.6,0.8-1.3,1.8-2.2,3.1c-0.9,1.3-1.9,2.8-3,4.5c-0.1,0.3-0.2,0.4-0.4,0.5 c-0.2,0.1-0.5,0.3-0.9,0.5c0.1,0.5,0.1,1,0.3,1.4c0.1,0.4,0.3,0.8,0.5,1.2c0.3,0.2,0.7,0.5,1.2,0.7c0.5,0.3,0.9,0.5,1.3,0.8 c0.3,0.3,0.6,0.3,0.9,0.1c0.3-0.2,0.6-0.6,0.9-1.2c0.2-0.5,0.4-1,0.7-1.5c0.2-0.5,0.5-0.9,0.9-1.4c-0.1,0.1,0.2-0.3,0.7-1.2 c0.5-0.8,1.2-1.8,2-3s1.6-2.4,2.4-3.6c0.8-1.2,1.5-2.2,2-3c0.5-0.8,0.7-1.1,0.7-1.1c0.3-0.5,0.6-0.9,0.8-1 c0.2-0.1,0.6-0.2,1.2-0.2c0.2,0.5,0.3,1.5,0.4,2.8c0,1.4,0,2.8,0,4.2c0,1.5,0,2.6,0,3.4c-0.1,0.5-0.1,0.9,0.2,1.4 c0.2,0.5,0.6,0.9,1.1,1.5c0.6,0.5,1,0.9,1.2,1c0.2,0.1,0.7,0.3,1.4,0.6c0.3-0.2,0.5-0.4,0.8-0.7c0.3-0.2,0.5-0.5,0.6-0.9 c0.3-0.9,0.8-1.7,1.3-2.4c0.6-0.7,0.9-1.2,1.2-1.6l2.9-3.8c0-0.4,0.1-0.7,0.4-0.8c0.3-0.2,0.5-0.4,0.7-0.6c0.5-0.6,1-1.1,1.5-1.7 c0.5-0.5,1-1.1,1.5-1.6c0.2-0.2,0.4-0.3,0.5-0.2c0.1,0.1,0.3,0.2,0.4,0.4c-0.1,0.5-0.3,1.4-0.6,2.7c-0.3,1.3-0.5,2.6-0.6,3.9 s-0.2,2.5-0.1,3.3c-0.2,0.4-0.2,0.8,0,1.3c0.2,0.5,0.3,1,0.2,1.4c-0.1,0.7,0,1.5,0.3,2.3c0.2,0.8,0.5,1.5,0.7,2.3 c0.6,0.4,1.1,0.7,1.4,1c0.3,0.3,0.7,0.6,1.2,0.8c0.9-0.2,1.5-0.5,1.6-1c0.2-0.5,0.1-1.5-0.4-3.2c-0.2-1.2-0.3-2.4-0.2-3.6 c0.1-1.1,0.1-2.3,0.2-3.3c0.1-0.7,0.2-1.7,0.4-2.9c0.2-1.3,0.5-2.6,0.9-4c0.3-1.4,0.7-2.8,1-4c0.3-1.2,0.6-2.1,0.8-2.6 c0.4-0.6,0.3-1.3-0.2-2C662.3,28.6,661.9,28.2,661.6,28z M674,45.2c-1-0.4-1.7-0.6-2.1-0.6c-0.5,0.1-1.2,0.4-2.1,1 c-1.4,1-2.3,1.9-2.6,2.9c-0.3,1,0,2,1,2.9c0.8,0.6,1.5,0.9,2.2,0.9c0.7,0,1.5-0.1,2.5-0.5c2-1,3.1-2.1,3.2-3.3 C676.3,47.3,675.6,46.2,674,45.2z M689.9,45.2c-1-0.4-1.7-0.6-2.1-0.6c-0.5,0.1-1.2,0.4-2.1,1c-1.4,1-2.3,1.9-2.6,2.9 c-0.3,1,0,2,1,2.9c0.8,0.6,1.5,0.9,2.2,0.9c0.7,0,1.5-0.1,2.5-0.5c2-1,3.1-2.1,3.2-3.3C692.2,47.3,691.5,46.2,689.9,45.2z M705.7,45.2c-1-0.4-1.7-0.6-2.1-0.6c-0.5,0.1-1.2,0.4-2.1,1c-1.4,1-2.3,1.9-2.6,2.9c-0.3,1,0,2,1,2.9c0.8,0.6,1.5,0.9,2.2,0.9 c0.7,0,1.5-0.1,2.5-0.5c2-1,3.1-2.1,3.2-3.3C708,47.3,707.3,46.2,705.7,45.2z"></path> </g> </g> </svg> 