<?xml version="1.0" encoding="UTF-8"?> <!-- Generator: Adobe Illustrator 25.2.1, SVG Export Plug-In . SVG Version: 6.00 Build 0) --> <svg xmlns="http://www.w3.org/2000/svg" xmlns:xlink="http://www.w3.org/1999/xlink" x="0px" y="0px" viewBox="0 0 321 77" style="enable-background:new 0 0 321 77;" xml:space="preserve"> <style type="text/css"> .st0{enable-background:new ;} .st1{fill:#F5E83F;} .st2{fill:#141517;} </style> <g id="Прямоугольник_508_1_" class="st0"> <g id="Прямоугольник_508"> <g> <path class="st1" d="M320.6,37.6L319.3,18c-0.7-10.5-9.8-18.4-20.4-17.7L18.1,19.2C7.6,19.9-0.4,28.9,0.4,39.4L1.7,59 c0.7,10.5,9.8,18.4,20.4,17.7l280.8-18.9C313.4,57.1,321.4,48.1,320.6,37.6z"></path> </g> </g> </g> <g id="Но_давай_к_сути_1_" class="st0"> <g id="Но_давай_к_сути"> <g> <path class="st2" d="M52.3,30.8c0-0.4-0.2-0.8-0.6-1.1c-0.1-0.2-0.2-0.3-0.4-0.4c-0.2-0.1-0.4-0.2-0.5-0.2c-0.2,0-0.3,0-0.4,0 c-0.4,0-0.7,0.2-1,0.6c-0.3,0.4-0.6,1.3-1,2.7c-0.3,0.9-0.5,2-0.9,3.2c-0.3,1.3-0.6,2.3-0.8,3.2l-1.3,4.9L43.1,44 c-0.3,0.1-0.9,0.2-1.8,0.2c-0.9,0.1-1.8,0.2-3,0.2c-1.1,0.1-2.2,0.2-3.3,0.2c-1.1,0.1-1.9,0.1-2.6,0.2c-0.7,0.1-1,0.1-1,0.2 c0-0.1,0.1-0.5,0.4-1.1c0.3-0.6,0.5-1.4,0.8-2.4c0.1-0.6,0.3-1.2,0.5-1.9c0.2-0.7,0.5-1.6,0.8-2.6c0-0.1,0.1-0.6,0.4-1.3 c0.3-0.7,0.6-1.6,1.1-2.5l1.5-3.5l-0.5-0.7c-0.2-0.3-0.4-0.6-0.7-0.7c-0.3-0.2-0.6-0.2-0.9-0.2c-0.3,0-0.5,0.1-0.6,0.4 c0,0.1-0.1,0.3-0.2,0.7c-0.2,0.3-0.3,0.6-0.4,0.9c-0.7,1.9-1.3,3.4-1.7,4.5c-0.4,1.2-0.7,1.8-0.8,1.9c0,0,0,0.1,0,0.2 c-0.3,0.8-0.5,1.5-0.7,2.1c-0.2,0.6-0.4,1.1-0.5,1.6c-0.2,0.6-0.4,1.2-0.6,1.8c-0.2,0.6-0.3,1-0.5,1.2c0,0.1,0,0.4-0.1,0.8 c-0.1,0.4-0.2,0.8-0.3,1.1C28.2,45.9,28,46.4,28,47c0,0.1,0,0.3,0,0.5c-0.1,0.1-0.2,0.5-0.4,1.2c-0.2,0.7-0.4,1.5-0.6,2.6 c-0.2,1-0.4,2.1-0.7,3.2c-0.2,1.1-0.4,2.1-0.6,3.1c-0.2,1-0.3,1.7-0.3,2.2c-0.1,0.5-0.1,0.8-0.2,0.9c0,0.1-0.1,0.3-0.2,0.5 c0,0.2,0,0.6,0,1c0,0.4-0.1,0.7-0.2,0.8c-0.1,0.5,0,1,0.2,1.4c0.2,0.4,0.6,0.6,1.1,0.7c0.2,0,0.4,0,0.5,0c0.1,0,0.3,0.1,0.5,0.2 c0-0.2,0.1-0.6,0.3-1.3c0.1-0.7,0.3-1.4,0.5-2.3c0.2-0.9,0.3-1.8,0.5-2.6c0.1-0.8,0.3-1.6,0.3-2.1c0-0.3,0.1-0.8,0.3-1.4 c0.1-0.7,0.3-1.4,0.5-2.3c0.2-0.8,0.4-1.7,0.6-2.5c0.2-0.8,0.4-1.5,0.5-2.1c0.1-0.6,0.2-0.9,0.3-1c0.5,0,0.9-0.1,1.2-0.1 c0.3,0,0.6,0,1-0.1c0.4,0,0.8-0.1,1.2-0.1c0.9-0.2,1.9-0.3,3.1-0.5c1.1-0.1,2.2-0.2,3.3-0.3c1.1-0.1,2-0.1,2.7-0.1 c0.7,0,1.1,0,1.2,0.1c0,0.2,0,0.3,0,0.5c-0.1,0.1-0.1,0.4-0.3,1c-0.1,0.6-0.3,1.3-0.4,2.1c-0.2,0.8-0.3,1.7-0.5,2.5 c-0.2,0.8-0.3,1.4-0.5,1.9c-0.2,1-0.4,2-0.5,3s-0.3,1.6-0.5,1.9c-0.3,0.7-0.4,1.3-0.2,1.7c0.1,0.4,0.5,0.7,1.1,1 c0.4,0.1,0.7,0.2,0.9,0.3c0.3,0.1,0.4,0,0.6-0.1c0-0.1,0-0.4,0.1-1c0.1-0.5,0.2-1.2,0.3-2c0.1-0.8,0.2-1.5,0.3-2.2 c0-0.2,0.1-0.5,0.2-1.1s0.3-1,0.4-1.4c0-0.2,0-0.5,0.2-0.9c0.1-0.3,0.2-0.6,0.2-0.8c0.2-0.6,0.4-1.4,0.7-2.4c0.2-1,0.5-2,0.7-3 c0.2-1,0.4-1.9,0.6-2.7c0.2-0.8,0.3-1.2,0.3-1.4c0.1-0.1,0.2-0.4,0.3-0.7c0.1-0.3,0.1-0.6,0.1-0.8c0-0.1,0.1-0.3,0.2-0.8 c0.1-0.4,0.3-0.8,0.4-1.2c0.2-0.4,0.3-0.7,0.3-0.7c0.1-0.1,0.2-0.3,0.3-0.6c0.1-0.2,0.1-0.5,0.1-0.9c0.2-0.6,0.4-1.5,0.7-2.4 c0.3-1,0.6-1.9,1.1-2.8C52.1,31.8,52.4,31.2,52.3,30.8z M64.2,43.2c-0.4-0.4-0.9-0.7-1.7-1c-0.5-0.5-0.9-0.7-1.2-0.7 c-0.3,0-0.7,0.1-1.4,0.3c-0.7,0.2-1.3,0.5-1.9,0.8c-0.6,0.3-1.2,0.9-2,1.6c-0.4,0.3-0.7,0.8-1.2,1.3c-0.4,0.5-0.8,1.1-1.1,1.6 c-0.3,0.5-0.6,1-0.8,1.3c-0.4,0.8-0.8,1.6-1,2.4c-0.3,0.9-0.3,1.4-0.3,1.6c0.1,0.3,0,0.5-0.2,0.5c-0.1,0.1-0.1,0.2-0.2,0.3 c-0.1,0.1,0,0.1,0.2,0.3c0.1,0.5,0.1,0.8,0,1.1c-0.1,0.5,0.1,1.1,0.3,1.6c0.3,0.6,0.8,1.1,1.4,1.7c0.4,0.3,0.7,0.5,0.9,0.6 c0.2,0.1,0.6,0.2,1,0.2c0.7-0.1,1.3-0.3,1.9-0.5c0.5-0.2,1.1-0.6,1.7-1.1c0.9-0.6,1.6-1.2,2.2-1.8c0.6-0.6,1.3-1.5,2-2.6 c1.1-1.8,1.8-3.4,1.9-4.6c0.2-1.2,0.1-2.3,0-3.2C64.8,44.2,64.5,43.6,64.2,43.2z M62.1,48.2c-0.3,1.2-0.7,2.1-1.1,2.9 c-0.4,0.8-1,1.6-1.6,2.5c-1.2,1.5-2.3,2.4-3.2,2.7c-0.9,0.3-1.5,0.1-1.8-0.6c-0.3-0.6-0.3-1.5,0.1-2.7c0.6-1.6,1.2-3,1.8-4.2 c0.6-1.2,1.4-2.3,2.3-3.2c0.6-0.6,1.1-0.9,1.7-1c0.5-0.1,1-0.1,1.4,0.1c0.2,0,0.3,0.3,0.4,0.7c0.1,0.4,0.1,0.9,0.1,1.4 C62.3,47.4,62.2,47.8,62.1,48.2z M94.1,37.6c-0.2-1.7-0.5-3.2-0.9-4.6c-0.4-1.3-1.1-2.4-2-3.3c-0.9-0.9-2.2-1.5-3.8-2 c-0.5-0.2-1-0.3-1.5-0.3c-0.5,0.1-0.9,0.2-1.3,0.3c-0.4,0.1-0.7,0.3-1.1,0.5c-0.4,0.2-0.7,0.5-0.9,0.7c-0.1,0.4,0,0.9,0.3,1.3 c0.3,0.4,0.7,0.7,1.1,0.8c1.1-0.6,2.2-0.7,3.1-0.5c0.9,0.2,1.8,0.9,2.6,1.8c0.4,0.5,0.8,1.2,1,2.1c0.2,0.9,0.3,1.8,0.3,2.7 c0,0.9,0,1.8-0.2,2.5c-0.1,0.7-0.3,1.2-0.5,1.4c-0.2-0.1-0.4-0.3-0.5-0.4c-0.2-0.1-0.4-0.3-0.8-0.3c-0.7-0.2-1.3-0.2-1.8,0 c-0.5,0.2-1,0.4-1.5,0.7c-0.8,0.4-1.5,1-2.1,1.7C83,43.6,82.4,44.3,82,45c-0.4,0.7-0.7,1.3-0.8,1.8c-0.2,0.4-0.4,1-0.8,1.9 c-0.3,0.8-0.4,1.7-0.4,2.4c0.1,0.5,0.1,1,0.2,1.5c0.1,0.5,0.2,1,0.5,1.4c0,0.4,0.2,0.8,0.4,1.1c0.2,0.3,0.5,0.6,0.7,0.9 c0.2,0.2,0.6,0.4,1,0.6c0.4,0.2,0.8,0.4,1.1,0.5c0.4,0.1,0.6,0.2,0.7,0.1c1.4-0.4,2.7-1.2,3.9-2.4c1.1-1.2,2.1-2.5,3-4.1 c0.9-1.5,1.5-3.1,2-4.7c0-0.3,0.1-0.6,0.3-1c0.2-0.4,0.3-0.8,0.3-1.3c0.2-0.5,0.2-1,0.1-1.5c-0.1-0.5,0-1,0.3-1.4 c0-0.9,0-1.5,0-1.9C94.3,38.5,94.2,38,94.1,37.6z M90.3,46.5c0,0.1-0.1,0.4-0.3,0.9c-0.2,0.5-0.4,1-0.7,1.5 c-0.2,0.5-0.4,0.9-0.6,1.1c-0.4,0.6-0.9,1.3-1.5,2c-0.6,0.7-1.2,1.3-1.8,1.7c-0.6,0.4-1.1,0.6-1.4,0.5c-0.4-0.1-0.6-0.5-0.8-1 c-0.2-0.5-0.3-1-0.3-1.5c0-0.2,0-0.6,0.1-1.2c0.1-0.7,0.3-1.4,0.6-2.2c0.1-0.2,0.3-0.3,0.4-0.5c0.1-0.2,0.2-0.4,0.1-0.6 c0.4-0.5,0.7-1.1,1.1-1.7c0.3-0.6,0.8-1.1,1.2-1.6c0.7-0.5,1.4-0.9,2.1-1.2c0.8-0.3,1.3-0.2,1.7,0.2c0.2,0.2,0.4,0.7,0.4,1.4 C90.7,45,90.6,45.7,90.3,46.5z M113.9,51.2c-0.4,0-0.9-0.2-1.4-0.5c-0.5-0.3-0.9-0.6-1-0.9c-0.5-0.7-0.8-1.4-1.1-2.4 c-0.3-0.9-0.2-2,0.1-3.3l0.7-2.4l-1.8-1.4c-0.3-0.3-0.7-0.5-1-0.8c-0.3-0.2-0.6-0.5-0.8-0.7c-0.2-0.2-0.4-0.3-0.5-0.4 c-0.5-0.4-1.1-0.5-1.8-0.3c-0.7,0.1-1.4,0.4-2,0.9c-0.3,0.2-0.7,0.5-1.1,1s-0.9,0.9-1.3,1.4c-0.4,0.5-0.7,0.9-1,1.3 c-0.3,0.4-0.4,0.7-0.4,0.8l0,0.3c-0.1,0-0.2,0.1-0.3,0.2C99,44.3,99,44.4,99,44.5c-0.1,0.1-0.3,0.4-0.5,0.8 c-0.2,0.4-0.5,0.8-0.7,1c-0.5,1.1-1,2.2-1.3,3.2c-0.4,1-0.6,1.8-0.8,2.5c-0.1,0.7-0.1,1.1,0,1.3c0.1,0.1,0.2,0.2,0.2,0.4 c0,0.1,0,0.3,0.1,0.4c0,0.1,0.1,0.2,0.3,0.4c0.2,0.1,0.4,0.3,0.5,0.5c1.1,0.6,2.5,0.5,4-0.4c1.6-0.9,3.4-2.5,5.5-4.9 c0.2-0.2,0.4-0.5,0.7-1c0.3-0.4,0.5-0.7,0.6-0.9c0,0.2,0.2,0.5,0.4,1c0.2,0.5,0.4,0.8,0.6,1c0.9,1.4,1.7,2.3,2.7,2.9 c0.9,0.6,1.9,0.7,2.9,0.5c0.3-0.1,0.5-0.2,0.6-0.4c0.1-0.2,0.2-0.4,0.1-0.8c0-0.3-0.2-0.6-0.4-0.7 C114.4,51.3,114.2,51.3,113.9,51.2z M106.9,44.4c-0.6,1-1.4,2-2.4,3.2c-1,1.2-2,2.2-3,3.2c-0.7,0.7-1.4,1.1-2.1,1.4 c-0.7,0.3-1,0.3-1,0.1c0.4-1.2,0.7-2.1,1-2.7c0.7-1.5,1.5-3,2.3-4.3c0.8-1.3,1.6-2.3,2.4-3.1c0.7-0.8,1.3-1.2,1.7-1.2 c0.3,0,0.6,0.1,0.9,0.3c0.4,0.2,0.7,0.7,1.1,1.4L106.9,44.4z M134,30.1c0.5-1.2,0.8-2.1,1-2.7c0.2-0.6,0.2-1.1,0.1-1.5 c-0.1-0.4-0.4-1-0.8-1.6c-0.2-0.3-0.6-0.5-1.2-0.7c-0.5-0.2-0.9-0.2-1.1-0.1c-0.4,0.2-1,0.3-1.7,0.5s-1.1,0.4-1.3,0.5 c-0.4,0.4-0.8,0.9-1.4,1.4c-0.6,0.5-1.2,1.1-1.8,1.7c-0.6,0.6-1.1,1.3-1.4,2c-0.6,0.6-1.1,1.2-1.4,1.9c-0.4,0.7-0.8,1.4-1.3,2.1 c-0.1,0.2-0.3,0.6-0.6,1.2c-0.3,0.6-0.5,1.1-0.7,1.7c-0.2,0.6-0.4,1-0.5,1.2c-0.3,0.7-0.7,1.2-1.2,1.7c-0.2,0.2-0.3,0.4-0.4,0.6 c-0.1,0.2-0.1,0.4,0,0.7c0.1,0.6,0.1,1.2,0,1.7c0,0.1-0.1,0.4-0.3,0.9c-0.2,0.5-0.3,0.8-0.3,0.9c0,0.1-0.1,0.6-0.3,1.6 c-0.2,0.9-0.4,2.6-0.7,5c-0.1,0.3-0.1,0.8,0.1,1.4c0.2,0.7,0.5,1.3,0.8,1.8c0.6,0.8,1.2,1.2,1.9,1.2c0.7,0,1.3,0,1.8,0l1.5-1 c0.5-0.5,1-1,1.4-1.5c0.4-0.6,0.8-1.2,1.2-1.9c0.2-0.4,0.4-0.7,0.6-1.2c0.2-0.4,0.3-0.8,0.5-1.2c0.1-0.4,0.2-0.9,0.2-1.3 c0-0.5,0.1-0.9,0.3-1.3c0-0.3,0-0.7,0-1c0-0.4,0-0.7,0-1.1c0.1-0.2,0.1-0.3,0-0.4c0-0.1-0.1-0.2-0.3-0.4 c-0.4-0.3-0.7-0.6-1.1-0.8c-0.4-0.2-0.8-0.3-1.2-0.4c-0.2,0-0.4,0-0.4,0.1c0,0.1-0.2,0.2-0.4,0.4c0.1,0.3,0.3,0.6,0.3,0.8 c0.1,0.2,0.1,0.5,0.2,0.9c0,0.4,0.1,0.9,0.1,1.6c-0.1,0.3-0.2,0.7-0.3,1.1c0,0.4-0.1,0.8-0.2,1.1c-0.2,0.6-0.4,1.1-0.7,1.7 c-0.3,0.5-0.6,1.1-1,1.6c-0.3,0.4-0.6,0.8-0.9,1s-0.6,0.4-1.1,0.6c-0.2-0.1-0.4-0.2-0.4-0.4c-0.1-0.2-0.1-0.3-0.2-0.5 c0-0.2,0-0.7,0-1.5c0.1-0.7,0.2-1.5,0.3-2.4c0.1-0.9,0.3-1.6,0.4-2.3c0.1-0.6,0.2-1,0.3-1.1c0.2-0.2,0.3-0.4,0.3-0.7 c0-0.3,0.1-0.7,0.2-1.1c0.1-0.3,0.2-0.6,0.4-0.8c0.2-0.2,0.4-0.3,0.6-0.4c0.4-0.2,0.8-0.4,1.3-0.6c0.4-0.2,0.8-0.4,1.2-0.7 c0.6-0.4,1.3-0.8,1.9-1.3c0.6-0.5,1.2-1,1.8-1.6c1.1-0.9,2.2-1.9,3.3-3.1C132.6,32.6,133.4,31.4,134,30.1z M127.4,34 c-1.2,1-2.4,2.1-3.8,3.1c-0.2,0.3-0.3,0.4-0.5,0.5c-0.2,0.1-0.4,0.1-0.8,0c0.3-0.6,0.7-1.4,1.2-2.3c0.6-0.9,1.2-1.8,1.8-2.8 c0.7-0.9,1.3-1.8,1.8-2.6c0.6-0.8,1-1.3,1.3-1.6c0.8-0.9,1.4-1.5,1.9-1.9c0.5-0.4,1.2-0.8,2-1.3l0.3,1.3c0,0.4-0.1,0.8-0.3,1.1 c-0.2,0.3-0.3,0.7-0.5,1c-0.2,0.7-0.7,1.5-1.5,2.5C129.5,32,128.6,33,127.4,34z M148.7,48.9c-0.4,0-0.9-0.2-1.4-0.5 c-0.5-0.3-0.9-0.6-1-0.9c-0.5-0.7-0.8-1.4-1.1-2.4c-0.3-0.9-0.2-2,0.1-3.3l0.7-2.4l-1.8-1.4c-0.3-0.3-0.7-0.5-1-0.8 c-0.3-0.2-0.6-0.5-0.8-0.7c-0.2-0.2-0.4-0.3-0.5-0.4c-0.5-0.4-1.1-0.5-1.8-0.3c-0.7,0.1-1.4,0.4-2,0.9c-0.3,0.2-0.7,0.5-1.1,1 c-0.4,0.4-0.9,0.9-1.3,1.4c-0.4,0.5-0.7,0.9-1,1.3c-0.3,0.4-0.4,0.7-0.4,0.8l0,0.3c-0.1,0-0.2,0.1-0.3,0.2 c-0.1,0.1-0.1,0.2-0.1,0.4c-0.1,0.1-0.3,0.4-0.5,0.8c-0.2,0.4-0.5,0.8-0.7,1c-0.5,1.1-1,2.2-1.3,3.2c-0.4,1-0.6,1.8-0.8,2.5 c-0.1,0.7-0.1,1.1,0,1.3c0.1,0.1,0.2,0.2,0.2,0.4c0,0.1,0,0.3,0.1,0.4c0,0.1,0.1,0.2,0.3,0.4c0.2,0.1,0.4,0.3,0.5,0.5 c1.1,0.6,2.5,0.5,4-0.4c1.6-0.9,3.4-2.5,5.5-4.9c0.2-0.2,0.4-0.5,0.7-1c0.3-0.4,0.5-0.7,0.6-0.9c0,0.2,0.2,0.5,0.4,1 c0.2,0.5,0.4,0.8,0.6,1c0.9,1.4,1.7,2.3,2.7,2.9C147,51,148,51.2,149,51c0.3-0.1,0.5-0.2,0.6-0.4c0.1-0.2,0.2-0.4,0.1-0.8 c0-0.3-0.2-0.6-0.4-0.7C149.2,49,149,48.9,148.7,48.9z M141.6,42.1c-0.6,1-1.4,2-2.4,3.2c-1,1.2-2,2.2-3,3.2 c-0.7,0.7-1.4,1.1-2.1,1.4c-0.7,0.3-1,0.3-1,0.1c0.4-1.2,0.7-2.1,1-2.7c0.7-1.5,1.5-3,2.3-4.3c0.8-1.3,1.6-2.3,2.4-3.1 s1.3-1.2,1.7-1.2c0.3,0,0.6,0.1,0.9,0.3c0.4,0.2,0.7,0.7,1.1,1.4L141.6,42.1z M165.7,35.4c-0.3-0.2-0.5-0.4-0.7-0.4 c-0.3,0-0.5,0-0.7,0c-0.3,0.1-0.6,0.3-0.8,0.6c-0.2,0.3-0.5,0.9-0.9,1.7c-0.1,0.3-0.4,0.9-0.8,1.6c-0.4,0.8-0.8,1.5-1.2,2.1 c-0.5,0.9-0.9,1.8-1.4,2.6c-0.5,0.8-1,1.6-1.6,2.3c-0.5,0.6-1.1,1-1.7,1.4c-0.6,0.4-1.1,0.6-1.5,0.6c-0.1,0-0.2-0.2-0.1-0.8 c0.1-0.5,0.2-1.2,0.4-2c0.2-0.8,0.4-1.7,0.7-2.6c0.3-0.9,0.6-1.7,0.9-2.5c0.3-0.8,0.6-1.3,0.8-1.7c0.2-0.2,0.4-0.4,0.4-0.6 c0-0.2-0.1-0.3-0.2-0.5c-0.3-0.5-0.5-0.9-0.7-1.1c-0.2-0.2-0.5-0.3-0.7-0.3c-0.4,0-0.8,0.4-1.2,1.1c-0.4,0.7-0.9,1.6-1.2,2.6 c-0.4,1.1-0.7,2.2-1,3.4c-0.3,1.2-0.4,2.3-0.5,3.4c-0.1,1.1,0,2,0.3,2.6c0.2,0.4,0.4,0.7,0.6,1.1c0.2,0.3,0.5,0.6,0.8,0.8 c0.3,0.2,0.5,0.3,0.8,0.3c0.4,0,1-0.2,1.7-0.7c0.7-0.5,1.4-1.1,2.1-2c0.6-0.7,1.1-1.2,1.4-1.5c0.3-0.3,0.4-0.3,0.5-0.1 c0.1,0.2,0.1,0.6,0.2,1.2c0.1,0.8,0.1,1.4,0.2,1.8c0.1,0.4,0.3,0.8,0.5,1.2c0.4,0.4,0.8,0.7,1.1,0.9c0.4,0.2,0.7,0.2,0.9,0.1 c0.1,0,0.3-0.1,0.5-0.2c0.3-0.2,0.5-0.4,0.6-0.6c0.2-0.2,0.1-0.4-0.2-0.6c-0.2-0.1-0.4-0.3-0.5-0.5s-0.3-0.4-0.4-0.6 c-0.1-0.2-0.3-0.6-0.3-1.2c-0.1-0.6-0.1-1.1-0.1-1.5c0.2-1.3,0.5-2.7,1-4c0.5-1.3,1-2.7,1.5-4c0.1-0.3,0.3-0.7,0.5-1.4 c0.2-0.6,0.4-1.1,0.5-1.4c0-0.2,0-0.3-0.1-0.4C166.1,35.6,166,35.5,165.7,35.4z M167.2,27.3c0-0.2-0.1-0.4-0.4-0.6 c0-0.1-0.1-0.1-0.3-0.1c-0.2,0-0.3,0-0.5,0.1l0,0c-0.3,0.3-0.6,0.6-0.9,0.9c-0.3,0.3-0.6,0.6-0.9,1c-0.4,0.4-0.8,0.8-1.3,1.1 c-0.5,0.3-1,0.6-1.5,0.8c-0.5,0.3-0.9,0.3-1.1,0.1c-0.3-0.2-0.5-0.5-0.7-1c0,0,0,0,0-0.2c0-0.2-0.1-0.3-0.1-0.5 c-0.1-0.3-0.2-0.6-0.5-0.8c-0.2-0.2-0.6-0.4-1-0.5c-0.1-0.1-0.3,0-0.5,0.1c-0.2,0.1-0.3,0.2-0.4,0.3c-0.1,0.2-0.1,0.3-0.1,0.5 c0,0.2,0,0.4,0.1,0.7c0.4,1.3,1,2.3,1.7,2.9c0.7,0.6,1.5,0.9,2.5,0.7c0.4-0.1,0.7-0.1,0.9-0.2c0.2,0,0.5-0.1,0.7-0.3 c0.5-0.3,1-0.6,1.5-0.9c0.5-0.3,0.9-0.7,1.3-1c0.5-0.4,0.9-0.9,1.2-1.4c0.3-0.5,0.4-0.9,0.4-1.1l0-0.1 C167.2,27.7,167.2,27.5,167.2,27.3z M196.9,32.5c-0.2-0.1-0.5-0.2-1-0.2c-0.3,0.1-0.6,0.3-0.8,0.6c-0.2,0.2-0.4,0.5-0.5,0.8 c0,0.1-0.2,0.3-0.6,0.7c-0.4,0.4-0.8,0.9-1.4,1.5c-0.5,0.6-1,1.1-1.5,1.6c-0.5,0.5-0.8,0.8-0.9,1c-0.4,0.5-0.7,0.8-0.9,1 c-0.2,0.2-0.5,0.4-0.7,0.5c-0.2,0.1-0.6,0.2-1.2,0.4c0.2-0.9,0.5-1.7,0.7-2.2c0.2-0.5,0.4-1,0.7-1.5c0.2-0.5,0.5-1.1,0.9-1.8 c0.2-0.4,0.2-0.7,0.1-1c-0.1-0.3-0.2-0.6-0.5-0.9c-0.1-0.1-0.2-0.2-0.3-0.2c-0.1,0-0.2-0.1-0.3-0.1c-0.2-0.4-0.5-0.5-0.9-0.5 c-0.3,0-0.6,0.2-0.8,0.4c-0.2,0.2-0.4,0.4-0.4,0.7c-0.1,0.9-0.4,1.7-0.8,2.5c-0.4,0.8-0.7,1.5-0.9,2.1c0,0.2-0.1,0.7-0.4,1.4 c-0.2,0.8-0.5,1.6-0.8,2.6c-0.3,1-0.5,1.9-0.8,2.7c-0.2,0.8-0.4,1.4-0.4,1.7c-0.1,0.3-0.2,0.6-0.2,1c0,0.3,0.1,0.7,0.3,1.1 c0.2,0.2,0.4,0.4,0.7,0.6c0.3,0.2,0.6,0.3,1,0.3c0.3-0.2,0.5-0.5,0.7-0.8c0.2-0.3,0.3-0.6,0.4-1c0.1-0.5,0.2-1.1,0.3-1.6 c0.1-0.6,0.3-1.1,0.6-1.5c0-0.6,0-1.1,0.2-1.4c0.2-0.3,0.3-0.7,0.4-1.2c0.2,0.3,0.5,0.7,0.9,1.3s0.9,1.2,1.3,1.8 c0.5,0.7,0.9,1.2,1.3,1.8c0.4,0.5,0.7,0.9,0.9,1.1c0.4,0.4,0.8,0.7,1.2,1c0.4,0.3,0.9,0.5,1.4,0.6c0.5,0.1,0.9,0.2,1.1,0.2 c0.2,0,0.4-0.1,0.5-0.4c0.2-0.2,0.4-0.5,0.9-0.8c0-0.2-0.1-0.4-0.1-0.6c0-0.2-0.1-0.4-0.2-0.5c-0.1-0.2-0.3-0.3-0.5-0.4 c-0.8,0.1-1.4,0-1.9-0.3c-0.5-0.2-0.9-0.7-1-1.5c-0.2-0.4-0.6-0.9-1-1.5c-0.4-0.6-0.8-1.3-1.3-1.9c0.9-0.7,1.8-1.5,2.7-2.3 c0.9-0.8,1.8-1.6,2.6-2.3c0.8-0.7,1.5-1.3,2-1.8c0.3-0.3,0.4-0.6,0.4-1.1c0-0.5-0.1-0.7-0.2-0.8 C197.4,32.9,197.1,32.6,196.9,32.5z M221.8,45.3c0.4-0.4,0.9-0.8,1.4-1.3c0.5-0.5,0.9-1,1.2-1.4c0.3-0.4,0.4-0.7,0.3-0.8 c0-0.2,0.1-0.2,0.2-0.2c0.2-0.1,0.2-0.2,0.1-0.3c-0.1-0.1-0.2-0.2-0.5-0.3c-0.2-0.1-0.5-0.2-0.7-0.2c-0.4,0-0.7,0.1-0.8,0.1 c-0.2,0.1-0.4,0.3-0.6,0.7c-0.2,0.1-0.5,0.3-0.7,0.6c-0.2,0.2-0.4,0.4-0.5,0.5c-0.4,0.4-1,0.8-1.6,1.2c-0.6,0.5-1.1,0.8-1.6,1.1 c-0.3,0.2-0.9,0.4-1.6,0.5c-0.7,0.1-1.3,0.1-1.8,0.1c-0.1,0-0.2-0.3-0.3-0.8c-0.1-0.5-0.1-1.1,0.1-1.9c0.3-1.9,0.8-3.4,1.3-4.7 c0.5-1.3,1.1-2.3,1.7-3.1c0.7-0.8,1.4-1.5,2.1-2c0.6-0.3,1-0.3,1.3-0.1c0.2,0.2,0.3,0.8,0.2,1.7c-0.1,0.6-0.2,1.1-0.3,1.5 c-0.1,0.4-0.1,0.6-0.1,0.8c0.1,0.2,0.3,0.4,0.5,0.6c0.2,0.2,0.4,0.2,0.6,0.3c0.2,0,0.3,0,0.2-0.2c0-0.2,0-0.2,0.1-0.3 c0.1,0,0.2,0,0.4,0c0.3,0,0.5-0.3,0.8-0.7c0.3-0.5,0.5-1,0.6-1.6c0.2-0.4,0.2-0.8,0.1-1.3c-0.1-0.5-0.2-1-0.4-1.4 c-0.2-0.4-0.3-0.6-0.5-0.6l-0.3-0.2c0-0.4-0.3-0.7-0.9-1c-0.6-0.3-1.2-0.5-1.7-0.6c-0.3,0-0.6,0.1-1,0.1 c-0.4,0.1-0.8,0.2-1.2,0.4c-0.5,0.3-1,0.7-1.6,1.4c-0.6,0.7-1.2,1.4-1.7,2.2c-0.7,0.9-1.3,2.1-1.8,3.3c-0.5,1.3-0.9,2.5-1.1,3.8 c-0.2,1.2-0.3,2.3-0.1,3.2c0.1,1,0.4,1.8,0.9,2.4c0.5,0.6,1.1,1,1.9,1.2c0.8,0.2,1.6,0.2,2.5,0c0.4-0.1,0.9-0.3,1.5-0.6 c0.6-0.3,1.1-0.6,1.5-0.8c0.4-0.3,0.7-0.4,0.6-0.5c0-0.2,0.1-0.3,0.5-0.3C221,45.9,221.3,45.7,221.8,45.3z M239.7,29.9 c-0.4-0.2-0.6-0.2-0.7-0.2c-0.1,0-0.3,0.1-0.6,0.4c-0.3,0.1-0.5,0.4-0.7,0.9c-0.2,0.5-0.5,1.1-0.8,1.8c-0.3,0.6-0.5,1.3-0.8,2.2 c-0.3,0.9-0.4,1.6-0.6,2.1c-0.2,0.5-0.4,1-0.6,1.4c-0.2,0.5-0.3,0.8-0.4,1c0,0.1-0.1,0.4-0.2,0.7c-0.1,0.3-0.3,0.7-0.4,1.1 c-0.2,0.2-0.3,0.5-0.4,0.9c-0.1,0.3-0.2,0.7-0.3,0.9c-0.1,0.2-0.2,0.4-0.3,0.6c-0.5-0.3-0.9-0.9-1.2-1.7c-0.4-0.9-0.6-2-0.8-3.2 c-0.1-1.2-0.2-2.5-0.3-3.7c0-2.2-0.2-3.8-0.5-4.6c-0.4-0.8-1-1-1.8-0.6c-0.1,0.1-0.2,0.2-0.3,0.4c-0.1,0.2-0.1,0.5-0.1,1 c0,0.4,0,0.9,0.1,1.5c0,0.6,0,1.2-0.1,1.8c0,0.7,0,1.5,0.1,2.4c0.1,0.8,0.2,1.6,0.3,2.4c0.1,0.7,0.3,1.3,0.4,1.8 c0.2,0.5,0.4,0.7,0.5,0.7c0,0.2,0,0.4,0,0.5c0,0.3,0.1,0.6,0.4,1.2c0.3,0.5,0.7,1,1.2,1.5c0.4,0.4,0.8,0.6,1.2,0.7 c-0.1,0.2-0.2,0.4-0.3,0.7c-0.6,1.2-1.1,2.3-1.6,3.3c-0.5,1-0.9,1.7-1.1,2.1c-0.4,0.6-0.9,1.3-1.6,2c-0.7,0.7-1.3,1.2-2.1,1.4 c-0.8,0.2-1.5,0.2-2.2,0c-0.7-0.2-1.1-0.4-1.4-0.5c-0.2-0.2-0.4-0.2-0.6-0.1c-0.2,0.1-0.4,0.2-0.5,0.5c-0.1,0.2-0.2,0.4-0.1,0.6 c0.1,0.5,0.5,0.9,1.2,1.3c0.7,0.4,1.5,0.6,2.4,0.7c0.9,0.1,1.7,0,2.5-0.3c0.4-0.2,0.9-0.4,1.3-0.7c0.5-0.3,0.9-0.7,1.4-1.1 c0.4-0.4,0.8-0.8,1.1-1.1c0.7-0.9,1.3-2,1.9-3c0.6-1.1,1.2-2.2,1.9-3.4c0.3-0.9,0.6-1.7,0.8-2.3c0.3-0.7,0.6-1.4,0.9-2.2 c0.4-0.8,0.8-1.8,1.2-3.1c0.1-0.4,0.3-0.8,0.5-1.3c0.2-0.5,0.3-0.9,0.5-1.3c0.1-0.2,0.3-0.6,0.6-1.2c0.3-0.6,0.5-1.3,0.7-2.1 c0.4-0.9,0.7-1.6,0.8-2.1c0.1-0.5,0.1-1,0-1.3C240.4,30.6,240.1,30.3,239.7,29.9z M264.5,41.4c-0.2-0.4-0.3-0.7-0.4-1.1 c-0.1-0.4-0.1-1-0.1-1.8c0-1.4-0.1-2.5-0.4-3.4c-0.3-0.9-0.9-1.5-1.7-1.9c-0.5-0.4-1-0.6-1.5-0.5c-0.6,0.1-1.1,0.4-1.7,0.9 c-0.8,0.8-1.7,1.9-2.7,3.3c0.1-1.2,0.1-2,0.1-2.4c-0.2-1.1-0.5-1.9-1-2.5c-0.5-0.5-1-0.9-1.7-0.9c-0.3,0-0.8,0.1-1.4,0.4 c-0.6,0.2-1.2,0.7-1.8,1.4c-0.6,0.7-1,1.3-1.4,1.8c-0.4,0.5-0.8,1.1-1.3,1.9c-0.2,0.3-0.5,0.8-0.9,1.3c-0.1,0.1-0.2,0.3-0.3,0.4 c0-0.2,0.1-0.3,0.1-0.5c0.2-0.7,0.3-1.5,0.6-2.3c0.2-0.9,0.5-1.6,0.7-2.2c0.3-1,0.4-1.8,0.4-2.3c0-0.5-0.2-0.9-0.6-1.3 c-0.1-0.3-0.3-0.5-0.6-0.6c-0.2-0.1-0.5-0.1-0.7,0c-0.2,0.1-0.4,0.2-0.5,0.3c-0.1,0.1-0.1,0.3-0.2,0.7c-0.1,0.4-0.2,0.9-0.3,1.4 c-0.1,0.5-0.1,0.9-0.2,1.3c0,0.1-0.1,0.5-0.3,1c-0.2,0.6-0.4,1.1-0.7,1.7c-0.2,0.8-0.3,1.7-0.5,2.6c-0.2,0.9-0.3,1.8-0.3,2.5 c-0.1,0.8-0.1,1.3-0.1,1.6c0,0.6,0.2,1,0.5,1.3c0.3,0.3,0.6,0.6,1,0.8c0.5,0.2,0.8,0.2,0.9,0.2c0.2-0.1,0.4-0.5,0.8-1.2 c0.2-0.2,0.5-0.6,0.8-1c0.3-0.5,0.7-1,1-1.6c0.4-0.6,0.7-1.2,1.1-1.8c0.5-0.9,1-1.8,1.5-2.5c0.5-0.7,0.9-1.2,1.3-1.5 c0.3-0.2,0.6-0.4,0.9-0.5c0.3-0.1,0.5,0,0.7,0.2c0,0.4-0.1,1-0.3,1.9c-0.2,0.9-0.3,1.8-0.5,2.7c-0.2,0.9-0.3,1.6-0.4,2.2 c-0.1,0.5,0,0.9,0.2,1.3c0.2,0.4,0.7,0.6,1.4,0.8c0.4,0.2,0.6,0.2,0.7,0.1c0.1-0.1,0.5-0.7,1-1.7c0.6-1.1,1.2-2.2,1.9-3.2 c0.7-1,1.3-1.9,2-2.5c0.6-0.6,1.1-0.9,1.5-0.7c0.1,0.1,0.2,0.3,0.3,0.8c0.1,0.4,0.1,1,0.2,1.7l0.2,2.9c0,0.5,0.2,0.9,0.5,1.2 c0.3,0.3,0.7,0.5,1.1,0.6c0.4,0.1,0.8,0.1,1.1,0.1c0.2,0,0.4-0.2,0.5-0.6C264.9,41.8,264.8,41.5,264.5,41.4z M280.9,42.7 c-0.1-0.3-0.3-0.5-0.6-0.7c-0.5-0.4-0.9-0.8-1.1-1.3c-0.3-0.5-0.4-1-0.4-1.6c0-0.6,0.1-1.3,0.2-1.9c0.2-0.7,0.5-1.6,1-3 c0.6-1.7,1-3,1-4c0.1-0.9,0-1.5-0.4-1.8c-0.2-0.1-0.3-0.3-0.3-0.4c-0.1-0.2-0.2-0.2-0.3-0.2l-0.7,0.1c-0.1-0.2-0.2-0.1-0.4,0 c-0.2,0.2-0.4,0.3-0.5,0.5c-0.4,0.2-0.6,0.5-0.7,0.8c-0.1,0.3-0.1,0.6,0,1c0,0.6,0,1.1-0.1,1.6c-0.1,0.5-0.2,1.1-0.5,1.7 c-0.7,2.1-1.5,3.6-2.3,4.7c-0.8,1.1-1.6,1.7-2.3,2c-0.7,0.3-1.2,0.4-1.5,0.2c-0.5-0.1-0.7-0.6-0.7-1.3c0-0.7,0.2-1.7,0.4-2.7 c0.3-1.1,0.6-2.2,1-3.2c0.5-1.1,0.8-2.1,1-2.8c0.2-0.8,0.2-1.3,0-1.6c-0.1-0.4-0.3-0.7-0.6-0.9c-0.3-0.1-0.7-0.1-1.2,0.1 c-0.1,0.1-0.3,0.5-0.6,1.1c-0.3,0.6-0.7,1.6-1.3,2.9c-0.7,1.8-1.1,3.2-1.3,4.3c-0.2,1.1-0.3,2.1-0.2,3.2c-0.1,0.9-0.1,1.6,0.2,2 c0.2,0.5,0.6,0.9,1.2,1.3c0.6,0.7,1.3,1,2,0.9c0.7-0.1,1.5-0.5,2.5-1.2c0.4-0.2,0.8-0.6,1.3-0.9c0.4-0.4,0.7-0.6,0.8-0.8 c0.2-0.2,0.4-0.4,0.5-0.6c0.2-0.2,0.3-0.5,0.4-0.7c0,0.2,0.1,0.5,0.1,0.9c0,0.4,0.1,0.8,0.1,1c0.2,0.7,0.5,1.3,0.9,1.8 c0.4,0.5,0.7,0.9,1,1.2c0.3,0.2,0.7,0.3,1.1,0.3s0.7-0.1,1-0.3c0.3-0.2,0.5-0.4,0.5-0.7C281,43.3,280.9,43,280.9,42.7z"></path> </g> </g> </g> </svg> 