<?xml version="1.0" encoding="UTF-8"?> <!-- Generator: Adobe Illustrator 25.2.1, SVG Export Plug-In . SVG Version: 6.00 Build 0) --> <svg xmlns="http://www.w3.org/2000/svg" xmlns:xlink="http://www.w3.org/1999/xlink" x="0px" y="0px" viewBox="0 0 230 51" style="enable-background:new 0 0 230 51;" xml:space="preserve"> <style type="text/css"> .st0{enable-background:new ;} .st1{fill:#F5E941;} .st2{fill:#151517;} </style> <g id="Прямоугольник_514_1_" class="st0"> <g id="Прямоугольник_514"> <g> <path class="st1" d="M227.6,40.7L210.8,11c-3.2-5.7-9.9-10.3-14.8-10.3H5.6c-5,0-6.4,4.6-3.2,10.3l16.9,29.7 C22.5,46.4,29.1,51,34.1,51h190.3C229.4,51,230.9,46.4,227.6,40.7z"></path> </g> </g> </g> <g id="МАСТЕР_КМЗ_1_" class="st0"> <g id="МАСТЕР_КМЗ"> <g> <path class="st2" d="M41.8,25.6l-7.4-9H33v17.6h4.5V27l3.6,4.2h1.4l3.6-4.2v7.3h4.5V16.6h-1.4L41.8,25.6z M60.3,16.6l-7.9,17.6 h4.9l0.6-1.4h6.2l0.6,1.4h4.9l-7.9-17.6H60.3z M59.5,29.2l1.5-4l1.5,4H59.5z M77,21.3c0.7-0.4,1.5-0.6,2.4-0.6 c1.9,0,3.4,0.9,4.5,2.8l3.4-2.3c-0.8-1.5-1.9-2.6-3.3-3.4c-1.4-0.8-2.9-1.2-4.7-1.2s-3.3,0.4-4.7,1.2c-1.4,0.8-2.6,1.9-3.4,3.2 c-0.8,1.4-1.2,2.9-1.2,4.5c0,1.7,0.4,3.2,1.2,4.6c0.8,1.4,2,2.4,3.4,3.2c1.4,0.8,3,1.2,4.7,1.2c1.7,0,3.3-0.4,4.7-1.2 c1.4-0.8,2.5-2,3.3-3.4l-3.4-2.3c-1.1,1.9-2.6,2.8-4.5,2.8c-1.4,0-2.5-0.4-3.4-1.3c-0.9-0.9-1.3-2-1.3-3.5c0-1,0.2-1.8,0.6-2.5 C75.7,22.3,76.3,21.7,77,21.3z M88.5,21h5.2v13.2h4.5V21h5.2v-4.1H88.5V21z M109.9,27.1h5.3v-3.8h-5.3V21h7.5v-4.1h-12v17.3h12.3 v-4.1h-7.8V27.1z M130.7,17.7c-1-0.5-2.2-0.7-3.4-0.7h-6.8v17.3h4.5v-5.4h2.3c1.3,0,2.4-0.2,3.4-0.7c1-0.5,1.8-1.2,2.4-2.1 c0.6-0.9,0.9-1.9,0.9-3.1c0-1.2-0.3-2.2-0.9-3.1C132.5,18.8,131.7,18.1,130.7,17.7z M128.8,24.3c-0.4,0.4-0.9,0.6-1.5,0.6H125 v-4.1h2.3c0.6,0,1.1,0.2,1.5,0.6c0.4,0.4,0.6,0.9,0.6,1.5C129.4,23.5,129.2,24,128.8,24.3z M158.4,16.9h-5.2l-5.7,7.8v-7.8H143 v17.3h4.5v-8.6l6.6,8.6h5.3l-6.9-9.1L158.4,16.9z M170,25.6l-7.4-9h-1.4v17.6h4.5V27l3.6,4.2h1.4l3.6-4.2v7.3h4.5V16.6h-1.4 L170,25.6z M194.6,26.8c-0.4-0.6-0.9-1.2-1.6-1.5c0.5-0.4,0.9-0.9,1.2-1.5c0.3-0.6,0.4-1.2,0.4-1.9c0-1.7-0.5-3-1.6-3.9 c-1.1-0.9-2.6-1.4-4.4-1.4c-1.5,0-2.9,0.4-4,1.1c-1.1,0.7-2,1.7-2.6,3.1l3.1,2.2c0.8-1.5,1.8-2.2,3.2-2.2c0.6,0,1.1,0.1,1.4,0.4 c0.4,0.3,0.5,0.7,0.5,1.1c0,0.4-0.2,0.8-0.5,1.1c-0.3,0.3-0.8,0.4-1.4,0.4h-1.9v3.6h2.4c0.6,0,1.1,0.1,1.5,0.4 c0.3,0.3,0.5,0.6,0.5,1c0,0.5-0.2,0.9-0.7,1.2c-0.5,0.3-1.1,0.4-1.8,0.4c-0.8,0-1.5-0.2-2.1-0.5c-0.6-0.3-1.2-0.9-1.7-1.7 l-3.1,2.2c0.6,1.3,1.5,2.3,2.8,3c1.2,0.7,2.6,1.1,4.2,1.1c2.2,0,3.8-0.5,5-1.5c1.2-1,1.8-2.3,1.8-4 C195.2,28.2,195,27.4,194.6,26.8z"></path> </g> </g> </g> </svg> 